%TF.GenerationSoftware,KiCad,Pcbnew,(6.0.6)*%
%TF.CreationDate,2022-06-29T12:08:49+02:00*%
%TF.ProjectId,LoRaMini,4c6f5261-4d69-46e6-992e-6b696361645f,rev?*%
%TF.SameCoordinates,Original*%
%TF.FileFunction,Legend,Bot*%
%TF.FilePolarity,Positive*%
%FSLAX46Y46*%
G04 Gerber Fmt 4.6, Leading zero omitted, Abs format (unit mm)*
G04 Created by KiCad (PCBNEW (6.0.6)) date 2022-06-29 12:08:49*
%MOMM*%
%LPD*%
G01*
G04 APERTURE LIST*
%ADD10C,0.150000*%
%ADD11C,0.120000*%
G04 APERTURE END LIST*
D10*
X141149600Y-138277504D02*
X141197219Y-138372742D01*
X141197219Y-138515600D01*
X141149600Y-138658457D01*
X141054361Y-138753695D01*
X140959123Y-138801314D01*
X140768647Y-138848933D01*
X140625790Y-138848933D01*
X140435314Y-138801314D01*
X140340076Y-138753695D01*
X140244838Y-138658457D01*
X140197219Y-138515600D01*
X140197219Y-138420361D01*
X140244838Y-138277504D01*
X140292457Y-138229885D01*
X140625790Y-138229885D01*
X140625790Y-138420361D01*
X140197219Y-137801314D02*
X141197219Y-137801314D01*
X140197219Y-137229885D01*
X141197219Y-137229885D01*
X140197219Y-136753695D02*
X141197219Y-136753695D01*
X141197219Y-136515600D01*
X141149600Y-136372742D01*
X141054361Y-136277504D01*
X140959123Y-136229885D01*
X140768647Y-136182266D01*
X140625790Y-136182266D01*
X140435314Y-136229885D01*
X140340076Y-136277504D01*
X140244838Y-136372742D01*
X140197219Y-136515600D01*
X140197219Y-136753695D01*
X138587219Y-138753695D02*
X139587219Y-138753695D01*
X139587219Y-138372742D01*
X139539600Y-138277504D01*
X139491980Y-138229885D01*
X139396742Y-138182266D01*
X139253885Y-138182266D01*
X139158647Y-138229885D01*
X139111028Y-138277504D01*
X139063409Y-138372742D01*
X139063409Y-138753695D01*
X139111028Y-137420361D02*
X139063409Y-137277504D01*
X139015790Y-137229885D01*
X138920552Y-137182266D01*
X138777695Y-137182266D01*
X138682457Y-137229885D01*
X138634838Y-137277504D01*
X138587219Y-137372742D01*
X138587219Y-137753695D01*
X139587219Y-137753695D01*
X139587219Y-137420361D01*
X139539600Y-137325123D01*
X139491980Y-137277504D01*
X139396742Y-137229885D01*
X139301504Y-137229885D01*
X139206266Y-137277504D01*
X139158647Y-137325123D01*
X139111028Y-137420361D01*
X139111028Y-137753695D01*
X139158647Y-136610838D02*
X139206266Y-136706076D01*
X139253885Y-136753695D01*
X139349123Y-136801314D01*
X139396742Y-136801314D01*
X139491980Y-136753695D01*
X139539600Y-136706076D01*
X139587219Y-136610838D01*
X139587219Y-136420361D01*
X139539600Y-136325123D01*
X139491980Y-136277504D01*
X139396742Y-136229885D01*
X139349123Y-136229885D01*
X139253885Y-136277504D01*
X139206266Y-136325123D01*
X139158647Y-136420361D01*
X139158647Y-136610838D01*
X139111028Y-136706076D01*
X139063409Y-136753695D01*
X138968171Y-136801314D01*
X138777695Y-136801314D01*
X138682457Y-136753695D01*
X138634838Y-136706076D01*
X138587219Y-136610838D01*
X138587219Y-136420361D01*
X138634838Y-136325123D01*
X138682457Y-136277504D01*
X138777695Y-136229885D01*
X138968171Y-136229885D01*
X139063409Y-136277504D01*
X139111028Y-136325123D01*
X139158647Y-136420361D01*
X137977219Y-138753695D02*
X137977219Y-138134647D01*
X137596266Y-138467980D01*
X137596266Y-138325123D01*
X137548647Y-138229885D01*
X137501028Y-138182266D01*
X137405790Y-138134647D01*
X137167695Y-138134647D01*
X137072457Y-138182266D01*
X137024838Y-138229885D01*
X136977219Y-138325123D01*
X136977219Y-138610838D01*
X137024838Y-138706076D01*
X137072457Y-138753695D01*
X137977219Y-137848933D02*
X136977219Y-137515600D01*
X137977219Y-137182266D01*
X137977219Y-136944171D02*
X137977219Y-136325123D01*
X137596266Y-136658457D01*
X137596266Y-136515600D01*
X137548647Y-136420361D01*
X137501028Y-136372742D01*
X137405790Y-136325123D01*
X137167695Y-136325123D01*
X137072457Y-136372742D01*
X137024838Y-136420361D01*
X136977219Y-136515600D01*
X136977219Y-136801314D01*
X137024838Y-136896552D01*
X137072457Y-136944171D01*
X154199761Y-101633976D02*
X154247380Y-101776833D01*
X154247380Y-102014928D01*
X154199761Y-102110166D01*
X154152142Y-102157785D01*
X154056904Y-102205404D01*
X153961666Y-102205404D01*
X153866428Y-102157785D01*
X153818809Y-102110166D01*
X153771190Y-102014928D01*
X153723571Y-101824452D01*
X153675952Y-101729214D01*
X153628333Y-101681595D01*
X153533095Y-101633976D01*
X153437857Y-101633976D01*
X153342619Y-101681595D01*
X153295000Y-101729214D01*
X153247380Y-101824452D01*
X153247380Y-102062547D01*
X153295000Y-102205404D01*
X154247380Y-102633976D02*
X153247380Y-102633976D01*
X153247380Y-102872071D01*
X153295000Y-103014928D01*
X153390238Y-103110166D01*
X153485476Y-103157785D01*
X153675952Y-103205404D01*
X153818809Y-103205404D01*
X154009285Y-103157785D01*
X154104523Y-103110166D01*
X154199761Y-103014928D01*
X154247380Y-102872071D01*
X154247380Y-102633976D01*
X153961666Y-103586357D02*
X153961666Y-104062547D01*
X154247380Y-103491119D02*
X153247380Y-103824452D01*
X154247380Y-104157785D01*
X155809761Y-101633976D02*
X155857380Y-101776833D01*
X155857380Y-102014928D01*
X155809761Y-102110166D01*
X155762142Y-102157785D01*
X155666904Y-102205404D01*
X155571666Y-102205404D01*
X155476428Y-102157785D01*
X155428809Y-102110166D01*
X155381190Y-102014928D01*
X155333571Y-101824452D01*
X155285952Y-101729214D01*
X155238333Y-101681595D01*
X155143095Y-101633976D01*
X155047857Y-101633976D01*
X154952619Y-101681595D01*
X154905000Y-101729214D01*
X154857380Y-101824452D01*
X154857380Y-102062547D01*
X154905000Y-102205404D01*
X155762142Y-103205404D02*
X155809761Y-103157785D01*
X155857380Y-103014928D01*
X155857380Y-102919690D01*
X155809761Y-102776833D01*
X155714523Y-102681595D01*
X155619285Y-102633976D01*
X155428809Y-102586357D01*
X155285952Y-102586357D01*
X155095476Y-102633976D01*
X155000238Y-102681595D01*
X154905000Y-102776833D01*
X154857380Y-102919690D01*
X154857380Y-103014928D01*
X154905000Y-103157785D01*
X154952619Y-103205404D01*
X155857380Y-104110166D02*
X155857380Y-103633976D01*
X154857380Y-103633976D01*
X156515000Y-102205404D02*
X156467380Y-102110166D01*
X156467380Y-101967309D01*
X156515000Y-101824452D01*
X156610238Y-101729214D01*
X156705476Y-101681595D01*
X156895952Y-101633976D01*
X157038809Y-101633976D01*
X157229285Y-101681595D01*
X157324523Y-101729214D01*
X157419761Y-101824452D01*
X157467380Y-101967309D01*
X157467380Y-102062547D01*
X157419761Y-102205404D01*
X157372142Y-102253023D01*
X157038809Y-102253023D01*
X157038809Y-102062547D01*
X157467380Y-102681595D02*
X156467380Y-102681595D01*
X157467380Y-103253023D01*
X156467380Y-103253023D01*
X157467380Y-103729214D02*
X156467380Y-103729214D01*
X156467380Y-103967309D01*
X156515000Y-104110166D01*
X156610238Y-104205404D01*
X156705476Y-104253023D01*
X156895952Y-104300642D01*
X157038809Y-104300642D01*
X157229285Y-104253023D01*
X157324523Y-104205404D01*
X157419761Y-104110166D01*
X157467380Y-103967309D01*
X157467380Y-103729214D01*
X158077380Y-101586357D02*
X158077380Y-102205404D01*
X158458333Y-101872071D01*
X158458333Y-102014928D01*
X158505952Y-102110166D01*
X158553571Y-102157785D01*
X158648809Y-102205404D01*
X158886904Y-102205404D01*
X158982142Y-102157785D01*
X159029761Y-102110166D01*
X159077380Y-102014928D01*
X159077380Y-101729214D01*
X159029761Y-101633976D01*
X158982142Y-101586357D01*
X158077380Y-102491119D02*
X159077380Y-102824452D01*
X158077380Y-103157785D01*
X158077380Y-103395880D02*
X158077380Y-104014928D01*
X158458333Y-103681595D01*
X158458333Y-103824452D01*
X158505952Y-103919690D01*
X158553571Y-103967309D01*
X158648809Y-104014928D01*
X158886904Y-104014928D01*
X158982142Y-103967309D01*
X159029761Y-103919690D01*
X159077380Y-103824452D01*
X159077380Y-103538738D01*
X159029761Y-103443500D01*
X158982142Y-103395880D01*
X149938000Y-138328304D02*
X149985619Y-138423542D01*
X149985619Y-138566400D01*
X149938000Y-138709257D01*
X149842761Y-138804495D01*
X149747523Y-138852114D01*
X149557047Y-138899733D01*
X149414190Y-138899733D01*
X149223714Y-138852114D01*
X149128476Y-138804495D01*
X149033238Y-138709257D01*
X148985619Y-138566400D01*
X148985619Y-138471161D01*
X149033238Y-138328304D01*
X149080857Y-138280685D01*
X149414190Y-138280685D01*
X149414190Y-138471161D01*
X148985619Y-137852114D02*
X149985619Y-137852114D01*
X148985619Y-137280685D01*
X149985619Y-137280685D01*
X148985619Y-136804495D02*
X149985619Y-136804495D01*
X149985619Y-136566400D01*
X149938000Y-136423542D01*
X149842761Y-136328304D01*
X149747523Y-136280685D01*
X149557047Y-136233066D01*
X149414190Y-136233066D01*
X149223714Y-136280685D01*
X149128476Y-136328304D01*
X149033238Y-136423542D01*
X148985619Y-136566400D01*
X148985619Y-136804495D01*
X147375619Y-138733066D02*
X148375619Y-138733066D01*
X148375619Y-138352114D01*
X148328000Y-138256876D01*
X148280380Y-138209257D01*
X148185142Y-138161638D01*
X148042285Y-138161638D01*
X147947047Y-138209257D01*
X147899428Y-138256876D01*
X147851809Y-138352114D01*
X147851809Y-138733066D01*
X147661333Y-137780685D02*
X147661333Y-137304495D01*
X147375619Y-137875923D02*
X148375619Y-137542590D01*
X147375619Y-137209257D01*
X148375619Y-136685447D02*
X148375619Y-136590209D01*
X148328000Y-136494971D01*
X148280380Y-136447352D01*
X148185142Y-136399733D01*
X147994666Y-136352114D01*
X147756571Y-136352114D01*
X147566095Y-136399733D01*
X147470857Y-136447352D01*
X147423238Y-136494971D01*
X147375619Y-136590209D01*
X147375619Y-136685447D01*
X147423238Y-136780685D01*
X147470857Y-136828304D01*
X147566095Y-136875923D01*
X147756571Y-136923542D01*
X147994666Y-136923542D01*
X148185142Y-136875923D01*
X148280380Y-136828304D01*
X148328000Y-136780685D01*
X148375619Y-136685447D01*
X146765619Y-138804495D02*
X146765619Y-138185447D01*
X146384666Y-138518780D01*
X146384666Y-138375923D01*
X146337047Y-138280685D01*
X146289428Y-138233066D01*
X146194190Y-138185447D01*
X145956095Y-138185447D01*
X145860857Y-138233066D01*
X145813238Y-138280685D01*
X145765619Y-138375923D01*
X145765619Y-138661638D01*
X145813238Y-138756876D01*
X145860857Y-138804495D01*
X146765619Y-137899733D02*
X145765619Y-137566400D01*
X146765619Y-137233066D01*
X146765619Y-136994971D02*
X146765619Y-136375923D01*
X146384666Y-136709257D01*
X146384666Y-136566400D01*
X146337047Y-136471161D01*
X146289428Y-136423542D01*
X146194190Y-136375923D01*
X145956095Y-136375923D01*
X145860857Y-136423542D01*
X145813238Y-136471161D01*
X145765619Y-136566400D01*
X145765619Y-136852114D01*
X145813238Y-136947352D01*
X145860857Y-136994971D01*
X135507200Y-102205404D02*
X135459580Y-102110166D01*
X135459580Y-101967309D01*
X135507200Y-101824452D01*
X135602438Y-101729214D01*
X135697676Y-101681595D01*
X135888152Y-101633976D01*
X136031009Y-101633976D01*
X136221485Y-101681595D01*
X136316723Y-101729214D01*
X136411961Y-101824452D01*
X136459580Y-101967309D01*
X136459580Y-102062547D01*
X136411961Y-102205404D01*
X136364342Y-102253023D01*
X136031009Y-102253023D01*
X136031009Y-102062547D01*
X136459580Y-102681595D02*
X135459580Y-102681595D01*
X136459580Y-103253023D01*
X135459580Y-103253023D01*
X136459580Y-103729214D02*
X135459580Y-103729214D01*
X135459580Y-103967309D01*
X135507200Y-104110166D01*
X135602438Y-104205404D01*
X135697676Y-104253023D01*
X135888152Y-104300642D01*
X136031009Y-104300642D01*
X136221485Y-104253023D01*
X136316723Y-104205404D01*
X136411961Y-104110166D01*
X136459580Y-103967309D01*
X136459580Y-103729214D01*
X138069580Y-101681595D02*
X137069580Y-101681595D01*
X137069580Y-102062547D01*
X137117200Y-102157785D01*
X137164819Y-102205404D01*
X137260057Y-102253023D01*
X137402914Y-102253023D01*
X137498152Y-102205404D01*
X137545771Y-102157785D01*
X137593390Y-102062547D01*
X137593390Y-101681595D01*
X137545771Y-103014928D02*
X137593390Y-103157785D01*
X137641009Y-103205404D01*
X137736247Y-103253023D01*
X137879104Y-103253023D01*
X137974342Y-103205404D01*
X138021961Y-103157785D01*
X138069580Y-103062547D01*
X138069580Y-102681595D01*
X137069580Y-102681595D01*
X137069580Y-103014928D01*
X137117200Y-103110166D01*
X137164819Y-103157785D01*
X137260057Y-103205404D01*
X137355295Y-103205404D01*
X137450533Y-103157785D01*
X137498152Y-103110166D01*
X137545771Y-103014928D01*
X137545771Y-102681595D01*
X137069580Y-103586357D02*
X137069580Y-104205404D01*
X137450533Y-103872071D01*
X137450533Y-104014928D01*
X137498152Y-104110166D01*
X137545771Y-104157785D01*
X137641009Y-104205404D01*
X137879104Y-104205404D01*
X137974342Y-104157785D01*
X138021961Y-104110166D01*
X138069580Y-104014928D01*
X138069580Y-103729214D01*
X138021961Y-103633976D01*
X137974342Y-103586357D01*
X138679580Y-101586357D02*
X138679580Y-102205404D01*
X139060533Y-101872071D01*
X139060533Y-102014928D01*
X139108152Y-102110166D01*
X139155771Y-102157785D01*
X139251009Y-102205404D01*
X139489104Y-102205404D01*
X139584342Y-102157785D01*
X139631961Y-102110166D01*
X139679580Y-102014928D01*
X139679580Y-101729214D01*
X139631961Y-101633976D01*
X139584342Y-101586357D01*
X138679580Y-102491119D02*
X139679580Y-102824452D01*
X138679580Y-103157785D01*
X138679580Y-103395880D02*
X138679580Y-104014928D01*
X139060533Y-103681595D01*
X139060533Y-103824452D01*
X139108152Y-103919690D01*
X139155771Y-103967309D01*
X139251009Y-104014928D01*
X139489104Y-104014928D01*
X139584342Y-103967309D01*
X139631961Y-103919690D01*
X139679580Y-103824452D01*
X139679580Y-103538738D01*
X139631961Y-103443500D01*
X139584342Y-103395880D01*
X127813366Y-102927966D02*
X127813366Y-102227966D01*
X127580033Y-102727966D01*
X127346700Y-102227966D01*
X127346700Y-102927966D01*
X127013366Y-102927966D02*
X127013366Y-102461300D01*
X127013366Y-102227966D02*
X127046700Y-102261300D01*
X127013366Y-102294633D01*
X126980033Y-102261300D01*
X127013366Y-102227966D01*
X127013366Y-102294633D01*
X126380033Y-102927966D02*
X126380033Y-102227966D01*
X126380033Y-102894633D02*
X126446700Y-102927966D01*
X126580033Y-102927966D01*
X126646700Y-102894633D01*
X126680033Y-102861300D01*
X126713366Y-102794633D01*
X126713366Y-102594633D01*
X126680033Y-102527966D01*
X126646700Y-102494633D01*
X126580033Y-102461300D01*
X126446700Y-102461300D01*
X126380033Y-102494633D01*
X125746700Y-102927966D02*
X125746700Y-102227966D01*
X125746700Y-102894633D02*
X125813366Y-102927966D01*
X125946700Y-102927966D01*
X126013366Y-102894633D01*
X126046700Y-102861300D01*
X126080033Y-102794633D01*
X126080033Y-102594633D01*
X126046700Y-102527966D01*
X126013366Y-102494633D01*
X125946700Y-102461300D01*
X125813366Y-102461300D01*
X125746700Y-102494633D01*
X125313366Y-102927966D02*
X125380033Y-102894633D01*
X125413366Y-102827966D01*
X125413366Y-102227966D01*
X124780033Y-102894633D02*
X124846700Y-102927966D01*
X124980033Y-102927966D01*
X125046700Y-102894633D01*
X125080033Y-102827966D01*
X125080033Y-102561300D01*
X125046700Y-102494633D01*
X124980033Y-102461300D01*
X124846700Y-102461300D01*
X124780033Y-102494633D01*
X124746700Y-102561300D01*
X124746700Y-102627966D01*
X125080033Y-102694633D01*
X123913366Y-102927966D02*
X123913366Y-102227966D01*
X123646700Y-102227966D01*
X123580033Y-102261300D01*
X123546700Y-102294633D01*
X123513366Y-102361300D01*
X123513366Y-102461300D01*
X123546700Y-102527966D01*
X123580033Y-102561300D01*
X123646700Y-102594633D01*
X123913366Y-102594633D01*
X122913366Y-102927966D02*
X122913366Y-102561300D01*
X122946700Y-102494633D01*
X123013366Y-102461300D01*
X123146700Y-102461300D01*
X123213366Y-102494633D01*
X122913366Y-102894633D02*
X122980033Y-102927966D01*
X123146700Y-102927966D01*
X123213366Y-102894633D01*
X123246700Y-102827966D01*
X123246700Y-102761300D01*
X123213366Y-102694633D01*
X123146700Y-102661300D01*
X122980033Y-102661300D01*
X122913366Y-102627966D01*
X122280033Y-102927966D02*
X122280033Y-102227966D01*
X122280033Y-102894633D02*
X122346700Y-102927966D01*
X122480033Y-102927966D01*
X122546700Y-102894633D01*
X122580033Y-102861300D01*
X122613366Y-102794633D01*
X122613366Y-102594633D01*
X122580033Y-102527966D01*
X122546700Y-102494633D01*
X122480033Y-102461300D01*
X122346700Y-102461300D01*
X122280033Y-102494633D01*
X121513366Y-102461300D02*
X121246700Y-102461300D01*
X121413366Y-102227966D02*
X121413366Y-102827966D01*
X121380033Y-102894633D01*
X121313366Y-102927966D01*
X121246700Y-102927966D01*
X120913366Y-102927966D02*
X120980033Y-102894633D01*
X121013366Y-102861300D01*
X121046700Y-102794633D01*
X121046700Y-102594633D01*
X121013366Y-102527966D01*
X120980033Y-102494633D01*
X120913366Y-102461300D01*
X120813366Y-102461300D01*
X120746700Y-102494633D01*
X120713366Y-102527966D01*
X120680033Y-102594633D01*
X120680033Y-102794633D01*
X120713366Y-102861300D01*
X120746700Y-102894633D01*
X120813366Y-102927966D01*
X120913366Y-102927966D01*
X119580033Y-102394633D02*
X119280033Y-102927966D01*
X119880033Y-102927966D01*
X119580033Y-102394633D01*
X118546700Y-102461300D02*
X118280033Y-102461300D01*
X118446700Y-102927966D02*
X118446700Y-102327966D01*
X118413366Y-102261300D01*
X118346700Y-102227966D01*
X118280033Y-102227966D01*
X117946700Y-102927966D02*
X118013366Y-102894633D01*
X118046700Y-102861300D01*
X118080033Y-102794633D01*
X118080033Y-102594633D01*
X118046700Y-102527966D01*
X118013366Y-102494633D01*
X117946700Y-102461300D01*
X117846700Y-102461300D01*
X117780033Y-102494633D01*
X117746700Y-102527966D01*
X117713366Y-102594633D01*
X117713366Y-102794633D01*
X117746700Y-102861300D01*
X117780033Y-102894633D01*
X117846700Y-102927966D01*
X117946700Y-102927966D01*
X117413366Y-102927966D02*
X117413366Y-102461300D01*
X117413366Y-102594633D02*
X117380033Y-102527966D01*
X117346700Y-102494633D01*
X117280033Y-102461300D01*
X117213366Y-102461300D01*
X116513366Y-102227966D02*
X116080033Y-102227966D01*
X116313366Y-102494633D01*
X116213366Y-102494633D01*
X116146700Y-102527966D01*
X116113366Y-102561300D01*
X116080033Y-102627966D01*
X116080033Y-102794633D01*
X116113366Y-102861300D01*
X116146700Y-102894633D01*
X116213366Y-102927966D01*
X116413366Y-102927966D01*
X116480033Y-102894633D01*
X116513366Y-102861300D01*
X115780033Y-102861300D02*
X115746700Y-102894633D01*
X115780033Y-102927966D01*
X115813366Y-102894633D01*
X115780033Y-102861300D01*
X115780033Y-102927966D01*
X115513366Y-102227966D02*
X115080033Y-102227966D01*
X115313366Y-102494633D01*
X115213366Y-102494633D01*
X115146700Y-102527966D01*
X115113366Y-102561300D01*
X115080033Y-102627966D01*
X115080033Y-102794633D01*
X115113366Y-102861300D01*
X115146700Y-102894633D01*
X115213366Y-102927966D01*
X115413366Y-102927966D01*
X115480033Y-102894633D01*
X115513366Y-102861300D01*
X114880033Y-102227966D02*
X114646700Y-102927966D01*
X114413366Y-102227966D01*
X144448000Y-102205404D02*
X144400380Y-102110166D01*
X144400380Y-101967309D01*
X144448000Y-101824452D01*
X144543238Y-101729214D01*
X144638476Y-101681595D01*
X144828952Y-101633976D01*
X144971809Y-101633976D01*
X145162285Y-101681595D01*
X145257523Y-101729214D01*
X145352761Y-101824452D01*
X145400380Y-101967309D01*
X145400380Y-102062547D01*
X145352761Y-102205404D01*
X145305142Y-102253023D01*
X144971809Y-102253023D01*
X144971809Y-102062547D01*
X145400380Y-102681595D02*
X144400380Y-102681595D01*
X145400380Y-103253023D01*
X144400380Y-103253023D01*
X145400380Y-103729214D02*
X144400380Y-103729214D01*
X144400380Y-103967309D01*
X144448000Y-104110166D01*
X144543238Y-104205404D01*
X144638476Y-104253023D01*
X144828952Y-104300642D01*
X144971809Y-104300642D01*
X145162285Y-104253023D01*
X145257523Y-104205404D01*
X145352761Y-104110166D01*
X145400380Y-103967309D01*
X145400380Y-103729214D01*
X147010380Y-101681595D02*
X146010380Y-101681595D01*
X146010380Y-102062547D01*
X146058000Y-102157785D01*
X146105619Y-102205404D01*
X146200857Y-102253023D01*
X146343714Y-102253023D01*
X146438952Y-102205404D01*
X146486571Y-102157785D01*
X146534190Y-102062547D01*
X146534190Y-101681595D01*
X146724666Y-102633976D02*
X146724666Y-103110166D01*
X147010380Y-102538738D02*
X146010380Y-102872071D01*
X147010380Y-103205404D01*
X147010380Y-104062547D02*
X147010380Y-103491119D01*
X147010380Y-103776833D02*
X146010380Y-103776833D01*
X146153238Y-103681595D01*
X146248476Y-103586357D01*
X146296095Y-103491119D01*
X146010380Y-104967309D02*
X146010380Y-104491119D01*
X146486571Y-104443500D01*
X146438952Y-104491119D01*
X146391333Y-104586357D01*
X146391333Y-104824452D01*
X146438952Y-104919690D01*
X146486571Y-104967309D01*
X146581809Y-105014928D01*
X146819904Y-105014928D01*
X146915142Y-104967309D01*
X146962761Y-104919690D01*
X147010380Y-104824452D01*
X147010380Y-104586357D01*
X146962761Y-104491119D01*
X146915142Y-104443500D01*
X147620380Y-101586357D02*
X147620380Y-102205404D01*
X148001333Y-101872071D01*
X148001333Y-102014928D01*
X148048952Y-102110166D01*
X148096571Y-102157785D01*
X148191809Y-102205404D01*
X148429904Y-102205404D01*
X148525142Y-102157785D01*
X148572761Y-102110166D01*
X148620380Y-102014928D01*
X148620380Y-101729214D01*
X148572761Y-101633976D01*
X148525142Y-101586357D01*
X147620380Y-102491119D02*
X148620380Y-102824452D01*
X147620380Y-103157785D01*
X147620380Y-103395880D02*
X147620380Y-104014928D01*
X148001333Y-103681595D01*
X148001333Y-103824452D01*
X148048952Y-103919690D01*
X148096571Y-103967309D01*
X148191809Y-104014928D01*
X148429904Y-104014928D01*
X148525142Y-103967309D01*
X148572761Y-103919690D01*
X148620380Y-103824452D01*
X148620380Y-103538738D01*
X148572761Y-103443500D01*
X148525142Y-103395880D01*
X105445000Y-138305805D02*
X105492619Y-138401043D01*
X105492619Y-138543900D01*
X105445000Y-138686757D01*
X105349761Y-138781995D01*
X105254523Y-138829614D01*
X105064047Y-138877233D01*
X104921190Y-138877233D01*
X104730714Y-138829614D01*
X104635476Y-138781995D01*
X104540238Y-138686757D01*
X104492619Y-138543900D01*
X104492619Y-138448662D01*
X104540238Y-138305805D01*
X104587857Y-138258186D01*
X104921190Y-138258186D01*
X104921190Y-138448662D01*
X104492619Y-137829614D02*
X105492619Y-137829614D01*
X104492619Y-137258186D01*
X105492619Y-137258186D01*
X104492619Y-136781995D02*
X105492619Y-136781995D01*
X105492619Y-136543900D01*
X105445000Y-136401043D01*
X105349761Y-136305805D01*
X105254523Y-136258186D01*
X105064047Y-136210567D01*
X104921190Y-136210567D01*
X104730714Y-136258186D01*
X104635476Y-136305805D01*
X104540238Y-136401043D01*
X104492619Y-136543900D01*
X104492619Y-136781995D01*
X103882619Y-138972471D02*
X102882619Y-138639138D01*
X103882619Y-138305805D01*
X102882619Y-137972471D02*
X103882619Y-137972471D01*
X102882619Y-137496281D02*
X103882619Y-137496281D01*
X102882619Y-136924852D01*
X103882619Y-136924852D01*
X102962000Y-102205404D02*
X102914380Y-102110166D01*
X102914380Y-101967309D01*
X102962000Y-101824452D01*
X103057238Y-101729214D01*
X103152476Y-101681595D01*
X103342952Y-101633976D01*
X103485809Y-101633976D01*
X103676285Y-101681595D01*
X103771523Y-101729214D01*
X103866761Y-101824452D01*
X103914380Y-101967309D01*
X103914380Y-102062547D01*
X103866761Y-102205404D01*
X103819142Y-102253023D01*
X103485809Y-102253023D01*
X103485809Y-102062547D01*
X103914380Y-102681595D02*
X102914380Y-102681595D01*
X103914380Y-103253023D01*
X102914380Y-103253023D01*
X103914380Y-103729214D02*
X102914380Y-103729214D01*
X102914380Y-103967309D01*
X102962000Y-104110166D01*
X103057238Y-104205404D01*
X103152476Y-104253023D01*
X103342952Y-104300642D01*
X103485809Y-104300642D01*
X103676285Y-104253023D01*
X103771523Y-104205404D01*
X103866761Y-104110166D01*
X103914380Y-103967309D01*
X103914380Y-103729214D01*
X105000571Y-102014928D02*
X105048190Y-102157785D01*
X105095809Y-102205404D01*
X105191047Y-102253023D01*
X105333904Y-102253023D01*
X105429142Y-102205404D01*
X105476761Y-102157785D01*
X105524380Y-102062547D01*
X105524380Y-101681595D01*
X104524380Y-101681595D01*
X104524380Y-102014928D01*
X104572000Y-102110166D01*
X104619619Y-102157785D01*
X104714857Y-102205404D01*
X104810095Y-102205404D01*
X104905333Y-102157785D01*
X104952952Y-102110166D01*
X105000571Y-102014928D01*
X105000571Y-101681595D01*
X105238666Y-102633976D02*
X105238666Y-103110166D01*
X105524380Y-102538738D02*
X104524380Y-102872071D01*
X105524380Y-103205404D01*
X104524380Y-103395880D02*
X104524380Y-103967309D01*
X105524380Y-103681595D02*
X104524380Y-103681595D01*
X104524380Y-104157785D02*
X104524380Y-104729214D01*
X105524380Y-104443500D02*
X104524380Y-104443500D01*
X108196833Y-138927833D02*
X108896833Y-138927833D01*
X108396833Y-138694500D01*
X108896833Y-138461166D01*
X108196833Y-138461166D01*
X108196833Y-137827833D02*
X108563500Y-137827833D01*
X108630166Y-137861166D01*
X108663500Y-137927833D01*
X108663500Y-138061166D01*
X108630166Y-138127833D01*
X108230166Y-137827833D02*
X108196833Y-137894500D01*
X108196833Y-138061166D01*
X108230166Y-138127833D01*
X108296833Y-138161166D01*
X108363500Y-138161166D01*
X108430166Y-138127833D01*
X108463500Y-138061166D01*
X108463500Y-137894500D01*
X108496833Y-137827833D01*
X108196833Y-137561166D02*
X108663500Y-137194500D01*
X108663500Y-137561166D02*
X108196833Y-137194500D01*
X108263500Y-136927833D02*
X108230166Y-136894500D01*
X108196833Y-136927833D01*
X108230166Y-136961166D01*
X108263500Y-136927833D01*
X108196833Y-136927833D01*
X108196833Y-135694500D02*
X108196833Y-136094500D01*
X108196833Y-135894500D02*
X108896833Y-135894500D01*
X108796833Y-135961166D01*
X108730166Y-136027833D01*
X108696833Y-136094500D01*
X108896833Y-135261166D02*
X108896833Y-135194500D01*
X108863500Y-135127833D01*
X108830166Y-135094500D01*
X108763500Y-135061166D01*
X108630166Y-135027833D01*
X108463500Y-135027833D01*
X108330166Y-135061166D01*
X108263500Y-135094500D01*
X108230166Y-135127833D01*
X108196833Y-135194500D01*
X108196833Y-135261166D01*
X108230166Y-135327833D01*
X108263500Y-135361166D01*
X108330166Y-135394500D01*
X108463500Y-135427833D01*
X108630166Y-135427833D01*
X108763500Y-135394500D01*
X108830166Y-135361166D01*
X108863500Y-135327833D01*
X108896833Y-135261166D01*
X108263500Y-134727833D02*
X108230166Y-134694500D01*
X108196833Y-134727833D01*
X108230166Y-134761166D01*
X108263500Y-134727833D01*
X108196833Y-134727833D01*
X108830166Y-134427833D02*
X108863500Y-134394500D01*
X108896833Y-134327833D01*
X108896833Y-134161166D01*
X108863500Y-134094500D01*
X108830166Y-134061166D01*
X108763500Y-134027833D01*
X108696833Y-134027833D01*
X108596833Y-134061166D01*
X108196833Y-134461166D01*
X108196833Y-134027833D01*
X108896833Y-133827833D02*
X108196833Y-133594500D01*
X108896833Y-133361166D01*
X107769833Y-138794500D02*
X107769833Y-138661166D01*
X107736500Y-138594500D01*
X107669833Y-138527833D01*
X107536500Y-138494500D01*
X107303166Y-138494500D01*
X107169833Y-138527833D01*
X107103166Y-138594500D01*
X107069833Y-138661166D01*
X107069833Y-138794500D01*
X107103166Y-138861166D01*
X107169833Y-138927833D01*
X107303166Y-138961166D01*
X107536500Y-138961166D01*
X107669833Y-138927833D01*
X107736500Y-138861166D01*
X107769833Y-138794500D01*
X107769833Y-138294500D02*
X107069833Y-138061166D01*
X107769833Y-137827833D01*
X107069833Y-137594500D02*
X107769833Y-137594500D01*
X107769833Y-137327833D01*
X107736500Y-137261166D01*
X107703166Y-137227833D01*
X107636500Y-137194500D01*
X107536500Y-137194500D01*
X107469833Y-137227833D01*
X107436500Y-137261166D01*
X107403166Y-137327833D01*
X107403166Y-137594500D01*
X107703166Y-136394500D02*
X107736500Y-136361166D01*
X107769833Y-136294500D01*
X107769833Y-136127833D01*
X107736500Y-136061166D01*
X107703166Y-136027833D01*
X107636500Y-135994500D01*
X107569833Y-135994500D01*
X107469833Y-136027833D01*
X107069833Y-136427833D01*
X107069833Y-135994500D01*
X107469833Y-135594500D02*
X107503166Y-135661166D01*
X107536500Y-135694500D01*
X107603166Y-135727833D01*
X107636500Y-135727833D01*
X107703166Y-135694500D01*
X107736500Y-135661166D01*
X107769833Y-135594500D01*
X107769833Y-135461166D01*
X107736500Y-135394500D01*
X107703166Y-135361166D01*
X107636500Y-135327833D01*
X107603166Y-135327833D01*
X107536500Y-135361166D01*
X107503166Y-135394500D01*
X107469833Y-135461166D01*
X107469833Y-135594500D01*
X107436500Y-135661166D01*
X107403166Y-135694500D01*
X107336500Y-135727833D01*
X107203166Y-135727833D01*
X107136500Y-135694500D01*
X107103166Y-135661166D01*
X107069833Y-135594500D01*
X107069833Y-135461166D01*
X107103166Y-135394500D01*
X107136500Y-135361166D01*
X107203166Y-135327833D01*
X107336500Y-135327833D01*
X107403166Y-135361166D01*
X107436500Y-135394500D01*
X107469833Y-135461166D01*
X107769833Y-135127833D02*
X107069833Y-134894500D01*
X107769833Y-134661166D01*
X163955200Y-102205404D02*
X163907580Y-102110166D01*
X163907580Y-101967309D01*
X163955200Y-101824452D01*
X164050438Y-101729214D01*
X164145676Y-101681595D01*
X164336152Y-101633976D01*
X164479009Y-101633976D01*
X164669485Y-101681595D01*
X164764723Y-101729214D01*
X164859961Y-101824452D01*
X164907580Y-101967309D01*
X164907580Y-102062547D01*
X164859961Y-102205404D01*
X164812342Y-102253023D01*
X164479009Y-102253023D01*
X164479009Y-102062547D01*
X164907580Y-102681595D02*
X163907580Y-102681595D01*
X164907580Y-103253023D01*
X163907580Y-103253023D01*
X164907580Y-103729214D02*
X163907580Y-103729214D01*
X163907580Y-103967309D01*
X163955200Y-104110166D01*
X164050438Y-104205404D01*
X164145676Y-104253023D01*
X164336152Y-104300642D01*
X164479009Y-104300642D01*
X164669485Y-104253023D01*
X164764723Y-104205404D01*
X164859961Y-104110166D01*
X164907580Y-103967309D01*
X164907580Y-103729214D01*
X166517580Y-101681595D02*
X165517580Y-101681595D01*
X165517580Y-102062547D01*
X165565200Y-102157785D01*
X165612819Y-102205404D01*
X165708057Y-102253023D01*
X165850914Y-102253023D01*
X165946152Y-102205404D01*
X165993771Y-102157785D01*
X166041390Y-102062547D01*
X166041390Y-101681595D01*
X166231866Y-102633976D02*
X166231866Y-103110166D01*
X166517580Y-102538738D02*
X165517580Y-102872071D01*
X166517580Y-103205404D01*
X165946152Y-103681595D02*
X165898533Y-103586357D01*
X165850914Y-103538738D01*
X165755676Y-103491119D01*
X165708057Y-103491119D01*
X165612819Y-103538738D01*
X165565200Y-103586357D01*
X165517580Y-103681595D01*
X165517580Y-103872071D01*
X165565200Y-103967309D01*
X165612819Y-104014928D01*
X165708057Y-104062547D01*
X165755676Y-104062547D01*
X165850914Y-104014928D01*
X165898533Y-103967309D01*
X165946152Y-103872071D01*
X165946152Y-103681595D01*
X165993771Y-103586357D01*
X166041390Y-103538738D01*
X166136628Y-103491119D01*
X166327104Y-103491119D01*
X166422342Y-103538738D01*
X166469961Y-103586357D01*
X166517580Y-103681595D01*
X166517580Y-103872071D01*
X166469961Y-103967309D01*
X166422342Y-104014928D01*
X166327104Y-104062547D01*
X166136628Y-104062547D01*
X166041390Y-104014928D01*
X165993771Y-103967309D01*
X165946152Y-103872071D01*
X167127580Y-101586357D02*
X167127580Y-102205404D01*
X167508533Y-101872071D01*
X167508533Y-102014928D01*
X167556152Y-102110166D01*
X167603771Y-102157785D01*
X167699009Y-102205404D01*
X167937104Y-102205404D01*
X168032342Y-102157785D01*
X168079961Y-102110166D01*
X168127580Y-102014928D01*
X168127580Y-101729214D01*
X168079961Y-101633976D01*
X168032342Y-101586357D01*
X167127580Y-102491119D02*
X168127580Y-102824452D01*
X167127580Y-103157785D01*
X167127580Y-103395880D02*
X167127580Y-104014928D01*
X167508533Y-103681595D01*
X167508533Y-103824452D01*
X167556152Y-103919690D01*
X167603771Y-103967309D01*
X167699009Y-104014928D01*
X167937104Y-104014928D01*
X168032342Y-103967309D01*
X168079961Y-103919690D01*
X168127580Y-103824452D01*
X168127580Y-103538738D01*
X168079961Y-103443500D01*
X168032342Y-103395880D01*
D11*
%TO.C,LPB8*%
X136951500Y-132553200D02*
X136951500Y-134553200D01*
X140301500Y-134753200D02*
X140601500Y-135053200D01*
X136951500Y-134553200D02*
X141051500Y-134553200D01*
X140601500Y-135053200D02*
X140001500Y-135053200D01*
X141051500Y-134553200D02*
X141051500Y-132553200D01*
X141051500Y-132553200D02*
X136951500Y-132553200D01*
X140301500Y-134753200D02*
X140001500Y-135053200D01*
%TO.C,LPB3*%
X139064800Y-108900000D02*
X138464800Y-108900000D01*
X135414800Y-108400000D02*
X139514800Y-108400000D01*
X138764800Y-108600000D02*
X139064800Y-108900000D01*
X139514800Y-108400000D02*
X139514800Y-106400000D01*
X139514800Y-106400000D02*
X135414800Y-106400000D01*
X138764800Y-108600000D02*
X138464800Y-108900000D01*
X135414800Y-106400000D02*
X135414800Y-108400000D01*
%TO.C,LPA0*%
X145727200Y-132553200D02*
X145727200Y-134553200D01*
X149077200Y-134753200D02*
X149377200Y-135053200D01*
X149827200Y-134553200D02*
X149827200Y-132553200D01*
X149077200Y-134753200D02*
X148777200Y-135053200D01*
X145727200Y-134553200D02*
X149827200Y-134553200D01*
X149827200Y-132553200D02*
X145727200Y-132553200D01*
X149377200Y-135053200D02*
X148777200Y-135053200D01*
%TO.C,BT1*%
X175850800Y-109956000D02*
X98570800Y-109956000D01*
X98570800Y-123836000D02*
X94210800Y-123836000D01*
X175850800Y-116956000D02*
X175850800Y-109956000D01*
X175850800Y-123836000D02*
X175850800Y-130816000D01*
X98570800Y-130836000D02*
X98570800Y-123836000D01*
X93460800Y-126396000D02*
X95960800Y-126396000D01*
X94710800Y-125146000D02*
X94710800Y-127646000D01*
X180960800Y-126396000D02*
X178460800Y-126396000D01*
X175850800Y-130836000D02*
X98570800Y-130836000D01*
X98570800Y-109956000D02*
X98570800Y-116956000D01*
%TO.C,LPA15*%
X148550000Y-106407500D02*
X144450000Y-106407500D01*
X148100000Y-108907500D02*
X147500000Y-108907500D01*
X147800000Y-108607500D02*
X147500000Y-108907500D01*
X144450000Y-106407500D02*
X144450000Y-108407500D01*
X144450000Y-108407500D02*
X148550000Y-108407500D01*
X147800000Y-108607500D02*
X148100000Y-108907500D01*
X148550000Y-108407500D02*
X148550000Y-106407500D01*
%TO.C,JP6*%
X154210800Y-106507500D02*
X154210800Y-108507500D01*
X158310800Y-106507500D02*
X154210800Y-106507500D01*
X157560800Y-108707500D02*
X157260800Y-109007500D01*
X157860800Y-109007500D02*
X157260800Y-109007500D01*
X154210800Y-108507500D02*
X158310800Y-108507500D01*
X158310800Y-108507500D02*
X158310800Y-106507500D01*
X157560800Y-108707500D02*
X157860800Y-109007500D01*
%TO.C,LPA8*%
X168064400Y-106400000D02*
X163964400Y-106400000D01*
X163964400Y-106400000D02*
X163964400Y-108400000D01*
X168064400Y-108400000D02*
X168064400Y-106400000D01*
X167314400Y-108600000D02*
X167614400Y-108900000D01*
X167614400Y-108900000D02*
X167014400Y-108900000D01*
X167314400Y-108600000D02*
X167014400Y-108900000D01*
X163964400Y-108400000D02*
X168064400Y-108400000D01*
%TD*%
M02*
