%TF.GenerationSoftware,KiCad,Pcbnew,(6.0.6)*%
%TF.CreationDate,2022-06-29T12:08:49+02:00*%
%TF.ProjectId,LoRaMini,4c6f5261-4d69-46e6-992e-6b696361645f,rev?*%
%TF.SameCoordinates,Original*%
%TF.FileFunction,Profile,NP*%
%FSLAX46Y46*%
G04 Gerber Fmt 4.6, Leading zero omitted, Abs format (unit mm)*
G04 Created by KiCad (PCBNEW (6.0.6)) date 2022-06-29 12:08:49*
%MOMM*%
%LPD*%
G01*
G04 APERTURE LIST*
%TA.AperFunction,Profile*%
%ADD10C,0.100000*%
%TD*%
G04 APERTURE END LIST*
D10*
X181229000Y-104394000D02*
X181229000Y-136017000D01*
X181229000Y-104394000D02*
G75*
G03*
X177419000Y-100584000I-3810000J0D01*
G01*
X177419000Y-139827000D02*
G75*
G03*
X181229000Y-136017000I0J3810000D01*
G01*
X91948000Y-104394000D02*
X91948000Y-136017000D01*
X91948000Y-136017000D02*
G75*
G03*
X95758000Y-139827000I3810000J0D01*
G01*
X177419000Y-139827000D02*
X95758000Y-139827000D01*
X95758000Y-100584000D02*
G75*
G03*
X91948000Y-104394000I0J-3810000D01*
G01*
X177419000Y-100584000D02*
X95758000Y-100584000D01*
X97424665Y-136017001D02*
G75*
G03*
X97424665Y-136017001I-1666666J0D01*
G01*
X93257999Y-136017001D02*
X98257999Y-136017001D01*
X95757999Y-133517001D02*
X95757999Y-138517001D01*
X179085666Y-104394000D02*
G75*
G03*
X179085666Y-104394000I-1666666J0D01*
G01*
X174919000Y-104394000D02*
X179919000Y-104394000D01*
X177419000Y-101894000D02*
X177419000Y-106894000D01*
X97424666Y-104394000D02*
G75*
G03*
X97424666Y-104394000I-1666666J0D01*
G01*
X93258000Y-104394000D02*
X98258000Y-104394000D01*
X95758000Y-101894000D02*
X95758000Y-106894000D01*
X179085666Y-136017000D02*
G75*
G03*
X179085666Y-136017000I-1666666J0D01*
G01*
X174919000Y-136017000D02*
X179919000Y-136017000D01*
X177419000Y-133517000D02*
X177419000Y-138517000D01*
M02*
