%TF.GenerationSoftware,KiCad,Pcbnew,(6.0.7)*%
%TF.CreationDate,2022-08-09T15:02:55+02:00*%
%TF.ProjectId,LoRaMini-rounded,4c6f5261-4d69-46e6-992d-726f756e6465,rev?*%
%TF.SameCoordinates,Original*%
%TF.FileFunction,Paste,Top*%
%TF.FilePolarity,Positive*%
%FSLAX46Y46*%
G04 Gerber Fmt 4.6, Leading zero omitted, Abs format (unit mm)*
G04 Created by KiCad (PCBNEW (6.0.7)) date 2022-08-09 15:02:55*
%MOMM*%
%LPD*%
G01*
G04 APERTURE LIST*
G04 Aperture macros list*
%AMRoundRect*
0 Rectangle with rounded corners*
0 $1 Rounding radius*
0 $2 $3 $4 $5 $6 $7 $8 $9 X,Y pos of 4 corners*
0 Add a 4 corners polygon primitive as box body*
4,1,4,$2,$3,$4,$5,$6,$7,$8,$9,$2,$3,0*
0 Add four circle primitives for the rounded corners*
1,1,$1+$1,$2,$3*
1,1,$1+$1,$4,$5*
1,1,$1+$1,$6,$7*
1,1,$1+$1,$8,$9*
0 Add four rect primitives between the rounded corners*
20,1,$1+$1,$2,$3,$4,$5,0*
20,1,$1+$1,$4,$5,$6,$7,0*
20,1,$1+$1,$6,$7,$8,$9,0*
20,1,$1+$1,$8,$9,$2,$3,0*%
G04 Aperture macros list end*
%ADD10R,0.700000X0.510000*%
%ADD11R,0.250000X0.500000*%
%ADD12R,0.610000X0.650000*%
%ADD13R,0.700000X1.200000*%
%ADD14R,0.760000X1.200000*%
%ADD15R,0.800000X1.200000*%
%ADD16R,2.200000X1.050000*%
%ADD17R,1.050000X1.000000*%
%ADD18RoundRect,0.250000X-0.475000X0.250000X-0.475000X-0.250000X0.475000X-0.250000X0.475000X0.250000X0*%
%ADD19R,1.100000X1.900000*%
%ADD20R,0.700000X2.300000*%
%ADD21R,2.000000X1.000000*%
%ADD22R,0.740000X2.400000*%
%ADD23RoundRect,0.250000X0.475000X-0.250000X0.475000X0.250000X-0.475000X0.250000X-0.475000X-0.250000X0*%
%ADD24R,0.700000X2.500000*%
%ADD25RoundRect,0.250000X-0.250000X-0.475000X0.250000X-0.475000X0.250000X0.475000X-0.250000X0.475000X0*%
%ADD26R,1.000000X1.150000*%
%ADD27RoundRect,0.250000X0.262500X0.450000X-0.262500X0.450000X-0.262500X-0.450000X0.262500X-0.450000X0*%
%ADD28RoundRect,0.250000X0.325000X0.650000X-0.325000X0.650000X-0.325000X-0.650000X0.325000X-0.650000X0*%
%ADD29RoundRect,0.250000X0.450000X-0.262500X0.450000X0.262500X-0.450000X0.262500X-0.450000X-0.262500X0*%
%ADD30RoundRect,0.250000X-0.325000X-0.650000X0.325000X-0.650000X0.325000X0.650000X-0.325000X0.650000X0*%
%ADD31RoundRect,0.250000X-0.262500X-0.450000X0.262500X-0.450000X0.262500X0.450000X-0.262500X0.450000X0*%
%ADD32R,1.200000X1.200000*%
%ADD33RoundRect,0.250000X-0.625000X0.375000X-0.625000X-0.375000X0.625000X-0.375000X0.625000X0.375000X0*%
%ADD34RoundRect,0.250000X-0.450000X0.262500X-0.450000X-0.262500X0.450000X-0.262500X0.450000X0.262500X0*%
%ADD35RoundRect,0.250000X0.250000X0.475000X-0.250000X0.475000X-0.250000X-0.475000X0.250000X-0.475000X0*%
%ADD36RoundRect,0.250000X-0.650000X0.325000X-0.650000X-0.325000X0.650000X-0.325000X0.650000X0.325000X0*%
%ADD37RoundRect,0.150000X0.587500X0.150000X-0.587500X0.150000X-0.587500X-0.150000X0.587500X-0.150000X0*%
%ADD38RoundRect,0.200000X-0.200000X-0.800000X0.200000X-0.800000X0.200000X0.800000X-0.200000X0.800000X0*%
%ADD39RoundRect,0.062500X0.375000X-0.062500X0.375000X0.062500X-0.375000X0.062500X-0.375000X-0.062500X0*%
%ADD40RoundRect,0.062500X0.062500X-0.375000X0.062500X0.375000X-0.062500X0.375000X-0.062500X-0.375000X0*%
%ADD41RoundRect,0.250000X0.455000X-0.455000X0.455000X0.455000X-0.455000X0.455000X-0.455000X-0.455000X0*%
G04 APERTURE END LIST*
D10*
%TO.C,U2*%
X130700000Y-122367000D03*
X130700000Y-124267000D03*
X128380000Y-124267000D03*
X128380000Y-123317000D03*
X128380000Y-122367000D03*
%TD*%
D11*
%TO.C,U1*%
X110252000Y-117734000D03*
X110752000Y-117734000D03*
X111252000Y-117734000D03*
X111752000Y-117734000D03*
X112252000Y-117734000D03*
X112252000Y-119634000D03*
X111752000Y-119634000D03*
X111252000Y-119634000D03*
X110752000Y-119634000D03*
X110252000Y-119634000D03*
D12*
X111252000Y-118684000D03*
X110452000Y-118684000D03*
X112052000Y-118684000D03*
%TD*%
D13*
%TO.C,J3*%
X116197000Y-133699000D03*
X115197000Y-133699000D03*
D14*
X117217000Y-133699000D03*
X114177000Y-133699000D03*
D15*
X118447000Y-133699000D03*
X112947000Y-133699000D03*
%TD*%
D16*
%TO.C,ANT*%
X168057000Y-137517400D03*
X168057000Y-134567400D03*
D17*
X169582000Y-136042400D03*
%TD*%
D18*
%TO.C,C32*%
X143510000Y-127218400D03*
X143510000Y-129118400D03*
%TD*%
D19*
%TO.C,PA0*%
X151277300Y-137685940D03*
X144378700Y-137680860D03*
D20*
X149327300Y-134185940D03*
X147827300Y-134185940D03*
X146328700Y-134180862D03*
%TD*%
D21*
%TO.C,U4*%
X172338000Y-117714000D03*
X172338000Y-119714000D03*
X172338000Y-121714000D03*
X172338000Y-123714000D03*
X172338000Y-125714000D03*
X172338000Y-127714000D03*
X172338000Y-129714000D03*
X172338000Y-131714000D03*
X156338000Y-131714000D03*
X156338000Y-129714000D03*
X156338000Y-127714000D03*
X156338000Y-125714000D03*
X156338000Y-123714000D03*
X156338000Y-121714000D03*
X156338000Y-119714000D03*
X156338000Y-117714000D03*
%TD*%
D19*
%TO.C,PA15*%
X143031566Y-103309260D03*
X149930166Y-103314340D03*
D20*
X144981566Y-106809260D03*
X146481566Y-106809260D03*
X147980166Y-106814338D03*
%TD*%
D18*
%TO.C,C33*%
X152400000Y-127061000D03*
X152400000Y-125161000D03*
%TD*%
D22*
%TO.C,DEBUG1*%
X176276000Y-124759000D03*
X177546000Y-124759000D03*
X178816000Y-124759000D03*
X176276000Y-120859000D03*
X177546000Y-120859000D03*
X178816000Y-120859000D03*
%TD*%
D23*
%TO.C,C35*%
X134936000Y-118952000D03*
X134936000Y-120852000D03*
%TD*%
D19*
%TO.C,VIN*%
X106935000Y-137644800D03*
X101535000Y-137644800D03*
D24*
X104985000Y-134044800D03*
X103485000Y-134044800D03*
%TD*%
D25*
%TO.C,JP3*%
X148356400Y-112014000D03*
X146456400Y-112014000D03*
X144556400Y-112014000D03*
%TD*%
D26*
%TO.C,Y1*%
X138684000Y-119027000D03*
X138684000Y-120777000D03*
X137284000Y-120777000D03*
X137284000Y-119027000D03*
%TD*%
D19*
%TO.C,PB8*%
X142450800Y-137685940D03*
X135552200Y-137680860D03*
D20*
X140500800Y-134185940D03*
X139000800Y-134185940D03*
X137502200Y-134180862D03*
%TD*%
D25*
%TO.C,JP4*%
X139364800Y-112014000D03*
X137464800Y-112014000D03*
X135564800Y-112014000D03*
%TD*%
D27*
%TO.C,R12*%
X111101500Y-122301000D03*
X112926500Y-122301000D03*
%TD*%
D28*
%TO.C,C14*%
X102665000Y-115062000D03*
X105615000Y-115062000D03*
%TD*%
D29*
%TO.C,R14*%
X118491000Y-117705500D03*
X118491000Y-119530500D03*
%TD*%
D30*
%TO.C,C3*%
X112828600Y-114096800D03*
X109878600Y-114096800D03*
%TD*%
D31*
%TO.C,NTC1*%
X116736500Y-122301000D03*
X114911500Y-122301000D03*
%TD*%
D32*
%TO.C,D2*%
X118745000Y-130051000D03*
X118745000Y-127251000D03*
%TD*%
D25*
%TO.C,C31*%
X147609600Y-125780800D03*
X145709600Y-125780800D03*
%TD*%
D18*
%TO.C,C34*%
X141032000Y-120852000D03*
X141032000Y-118952000D03*
%TD*%
D33*
%TO.C,CHRG*%
X115824000Y-120018000D03*
X115824000Y-117218000D03*
%TD*%
D34*
%TO.C,R35*%
X127762000Y-134389500D03*
X127762000Y-132564500D03*
%TD*%
D28*
%TO.C,C2*%
X127811000Y-118491000D03*
X130761000Y-118491000D03*
%TD*%
D35*
%TO.C,JP5*%
X145928000Y-128930400D03*
X147828000Y-128930400D03*
X149728000Y-128930400D03*
%TD*%
D27*
%TO.C,R31*%
X156770700Y-112064800D03*
X158595700Y-112064800D03*
%TD*%
D29*
%TO.C,R2*%
X113284000Y-128881500D03*
X113284000Y-130706500D03*
%TD*%
D36*
%TO.C,C1*%
X124841000Y-124919000D03*
X124841000Y-121969000D03*
%TD*%
D29*
%TO.C,R11*%
X101346000Y-120015000D03*
X101346000Y-121840000D03*
%TD*%
D30*
%TO.C,C11*%
X105742000Y-125444000D03*
X102792000Y-125444000D03*
%TD*%
D31*
%TO.C,R32*%
X154938100Y-112064800D03*
X153113100Y-112064800D03*
%TD*%
%TO.C,R13*%
X116736500Y-124563000D03*
X114911500Y-124563000D03*
%TD*%
D37*
%TO.C,Q2*%
X130075700Y-113639600D03*
X131950700Y-112689600D03*
X131950700Y-114589600D03*
%TD*%
D19*
%TO.C,PA8*%
X162565100Y-103309260D03*
X169463700Y-103314340D03*
D20*
X164515100Y-106809260D03*
X166015100Y-106809260D03*
X167513700Y-106814338D03*
%TD*%
D30*
%TO.C,C41*%
X176989000Y-112217200D03*
X174039000Y-112217200D03*
%TD*%
D25*
%TO.C,JP1*%
X167914400Y-112115600D03*
X166014400Y-112115600D03*
X164114400Y-112115600D03*
%TD*%
D35*
%TO.C,JP2*%
X137101500Y-128930400D03*
X139001500Y-128930400D03*
X140901500Y-128930400D03*
%TD*%
D19*
%TO.C,BATT*%
X101535000Y-103337500D03*
X106935000Y-103337500D03*
D24*
X103485000Y-106937500D03*
X104985000Y-106937500D03*
%TD*%
D19*
%TO.C,PB3*%
X134150700Y-103309260D03*
X141049300Y-103314340D03*
D20*
X136100700Y-106809260D03*
X137600700Y-106809260D03*
X139099300Y-106814338D03*
%TD*%
D38*
%TO.C,RST*%
X158005200Y-135483600D03*
X153805200Y-135483600D03*
%TD*%
D34*
%TO.C,R33*%
X123952000Y-134389500D03*
X123952000Y-132564500D03*
%TD*%
%TO.C,R34*%
X123952000Y-138218500D03*
X123952000Y-136393500D03*
%TD*%
D39*
%TO.C,U3*%
X145009500Y-121892000D03*
X145009500Y-121392000D03*
X145009500Y-120892000D03*
X145009500Y-120392000D03*
X145009500Y-119892000D03*
X145009500Y-119392000D03*
X145009500Y-118892000D03*
X145009500Y-118392000D03*
D40*
X145697000Y-117704500D03*
X146197000Y-117704500D03*
X146697000Y-117704500D03*
X147197000Y-117704500D03*
X147697000Y-117704500D03*
X148197000Y-117704500D03*
X148697000Y-117704500D03*
X149197000Y-117704500D03*
D39*
X149884500Y-118392000D03*
X149884500Y-118892000D03*
X149884500Y-119392000D03*
X149884500Y-119892000D03*
X149884500Y-120392000D03*
X149884500Y-120892000D03*
X149884500Y-121392000D03*
X149884500Y-121892000D03*
D40*
X149197000Y-122579500D03*
X148697000Y-122579500D03*
X148197000Y-122579500D03*
X147697000Y-122579500D03*
X147197000Y-122579500D03*
X146697000Y-122579500D03*
X146197000Y-122579500D03*
X145697000Y-122579500D03*
D41*
X148322000Y-119267000D03*
X148322000Y-121017000D03*
X146572000Y-119267000D03*
X146572000Y-121017000D03*
%TD*%
D25*
%TO.C,C13*%
X112964000Y-124587000D03*
X111064000Y-124587000D03*
%TD*%
D34*
%TO.C,R36*%
X127762000Y-138199500D03*
X127762000Y-136374500D03*
%TD*%
D29*
%TO.C,R1*%
X115443000Y-128881500D03*
X115443000Y-130706500D03*
%TD*%
D19*
%TO.C,I2C*%
X152047632Y-103302000D03*
X160447632Y-103302000D03*
D24*
X153997632Y-106902000D03*
X155497632Y-106902000D03*
X156997632Y-106902000D03*
X158497632Y-106902000D03*
%TD*%
D37*
%TO.C,Q1*%
X104980500Y-118618000D03*
X106855500Y-117668000D03*
X106855500Y-119568000D03*
%TD*%
M02*
