M48
; DRILL file {KiCad (6.0.6)} date Mi 29 Jun 2022 12:08:47 CEST
; FORMAT={-:-/ absolute / inch / decimal}
; #@! TF.CreationDate,2022-06-29T12:08:47+02:00
; #@! TF.GenerationSoftware,Kicad,Pcbnew,(6.0.6)
; #@! TF.FileFunction,Plated,1,2,PTH
FMAT,2
INCH
; #@! TA.AperFunction,Plated,PTH,ViaDrill
T1C0.0118
; #@! TA.AperFunction,Plated,PTH,ViaDrill
T2C0.0157
; #@! TA.AperFunction,Plated,PTH,ComponentDrill
T3C0.0236
; #@! TA.AperFunction,Plated,PTH,ComponentDrill
T4C0.0394
; #@! TA.AperFunction,Plated,PTH,ComponentDrill
T5C0.1260
%
G90
G05
T1
X4.055Y-4.795
X4.206Y-4.76
X4.36Y-4.588
X4.36Y-4.755
X4.38Y-4.6726
X4.88Y-5.33
X5.03Y-5.165
X5.03Y-5.33
X5.472Y-5.128
X5.62Y-4.78
X5.655Y-4.7542
X5.655Y-4.8077
X5.7092Y-4.5844
X5.7351Y-4.5541
X5.82Y-5.13
X5.8684Y-4.8911
X5.96Y-4.695
X6.015Y-4.675
X6.02Y-4.79
X6.045Y-4.765
X6.085Y-4.95
X6.085Y-5.03
T2
X4.0591Y-4.7244
X4.228Y-4.554
X4.48Y-4.635
X5.0429Y-4.9589
X5.0429Y-5.018
X5.0429Y-5.0771
X5.102Y-4.9589
X5.102Y-5.018
X5.102Y-5.0771
X5.1611Y-4.9589
X5.1611Y-5.018
X5.1611Y-5.0771
X5.21Y-4.314
X5.252Y-4.9606
X5.252Y-5.018
X5.252Y-5.078
X5.294Y-4.818
X5.414Y-5.332
X5.434Y-4.57
X5.434Y-4.84
X5.476Y-4.152
X5.6457Y-5.1772
X5.7618Y-5.3327
X5.765Y-4.69
X5.765Y-4.77
X5.8248Y-4.1535
X5.845Y-4.69
X5.845Y-4.77
X6.0276Y-4.3228
X6.2402Y-4.1555
X6.2441Y-4.3209
X6.4149Y-4.8509
X6.4149Y-4.91
X6.4149Y-4.9691
X6.474Y-4.8509
X6.474Y-4.91
X6.474Y-4.9691
X6.5331Y-4.8509
X6.5331Y-4.91
X6.5331Y-4.9691
X6.5945Y-4.1535
X6.8524Y-4.3209
X6.9282Y-4.5527
X6.95Y-4.52
X6.99Y-4.9934
X7.04Y-4.995
T4
X6.78Y-5.365
T5
X3.77Y-4.11
X3.77Y-5.355
X6.985Y-4.11
X6.985Y-5.355
T3
G00X4.3849Y-5.2551
M15
G01X4.3849Y-5.2787
M16
G05
G00X4.3849Y-5.4047
M15
G01X4.3849Y-5.4283
M16
G05
G00X4.7251Y-5.2551
M15
G01X4.7251Y-5.2787
M16
G05
G00X4.7251Y-5.4047
M15
G01X4.7251Y-5.4283
M16
G05
T0
M30
