%TF.GenerationSoftware,KiCad,Pcbnew,(6.0.7)*%
%TF.CreationDate,2022-08-09T15:02:55+02:00*%
%TF.ProjectId,LoRaMini-rounded,4c6f5261-4d69-46e6-992d-726f756e6465,rev?*%
%TF.SameCoordinates,Original*%
%TF.FileFunction,Soldermask,Top*%
%TF.FilePolarity,Negative*%
%FSLAX46Y46*%
G04 Gerber Fmt 4.6, Leading zero omitted, Abs format (unit mm)*
G04 Created by KiCad (PCBNEW (6.0.7)) date 2022-08-09 15:02:55*
%MOMM*%
%LPD*%
G01*
G04 APERTURE LIST*
G04 Aperture macros list*
%AMRoundRect*
0 Rectangle with rounded corners*
0 $1 Rounding radius*
0 $2 $3 $4 $5 $6 $7 $8 $9 X,Y pos of 4 corners*
0 Add a 4 corners polygon primitive as box body*
4,1,4,$2,$3,$4,$5,$6,$7,$8,$9,$2,$3,0*
0 Add four circle primitives for the rounded corners*
1,1,$1+$1,$2,$3*
1,1,$1+$1,$4,$5*
1,1,$1+$1,$6,$7*
1,1,$1+$1,$8,$9*
0 Add four rect primitives between the rounded corners*
20,1,$1+$1,$2,$3,$4,$5,0*
20,1,$1+$1,$4,$5,$6,$7,0*
20,1,$1+$1,$6,$7,$8,$9,0*
20,1,$1+$1,$8,$9,$2,$3,0*%
G04 Aperture macros list end*
%ADD10C,0.010000*%
%ADD11R,0.700000X0.510000*%
%ADD12R,2.400000X0.840000*%
%ADD13R,0.250000X0.500000*%
%ADD14R,0.700000X1.200000*%
%ADD15R,0.760000X1.200000*%
%ADD16R,0.800000X1.200000*%
%ADD17R,2.200000X1.050000*%
%ADD18R,1.050000X1.000000*%
%ADD19RoundRect,0.250000X-0.475000X0.250000X-0.475000X-0.250000X0.475000X-0.250000X0.475000X0.250000X0*%
%ADD20R,1.100000X1.900000*%
%ADD21R,0.700000X2.300000*%
%ADD22R,2.000000X1.000000*%
%ADD23C,2.000000*%
%ADD24C,5.600000*%
%ADD25R,0.740000X2.400000*%
%ADD26RoundRect,0.250000X0.475000X-0.250000X0.475000X0.250000X-0.475000X0.250000X-0.475000X-0.250000X0*%
%ADD27R,0.700000X2.500000*%
%ADD28RoundRect,0.250000X-0.250000X-0.475000X0.250000X-0.475000X0.250000X0.475000X-0.250000X0.475000X0*%
%ADD29R,1.000000X1.150000*%
%ADD30RoundRect,0.250000X0.262500X0.450000X-0.262500X0.450000X-0.262500X-0.450000X0.262500X-0.450000X0*%
%ADD31RoundRect,0.250000X0.325000X0.650000X-0.325000X0.650000X-0.325000X-0.650000X0.325000X-0.650000X0*%
%ADD32RoundRect,0.250000X0.450000X-0.262500X0.450000X0.262500X-0.450000X0.262500X-0.450000X-0.262500X0*%
%ADD33RoundRect,0.250000X-0.325000X-0.650000X0.325000X-0.650000X0.325000X0.650000X-0.325000X0.650000X0*%
%ADD34RoundRect,0.250000X-0.262500X-0.450000X0.262500X-0.450000X0.262500X0.450000X-0.262500X0.450000X0*%
%ADD35R,1.200000X1.200000*%
%ADD36RoundRect,0.250000X-0.625000X0.375000X-0.625000X-0.375000X0.625000X-0.375000X0.625000X0.375000X0*%
%ADD37RoundRect,0.250000X-0.450000X0.262500X-0.450000X-0.262500X0.450000X-0.262500X0.450000X0.262500X0*%
%ADD38RoundRect,0.250000X0.250000X0.475000X-0.250000X0.475000X-0.250000X-0.475000X0.250000X-0.475000X0*%
%ADD39RoundRect,0.250000X-0.650000X0.325000X-0.650000X-0.325000X0.650000X-0.325000X0.650000X0.325000X0*%
%ADD40RoundRect,0.150000X0.587500X0.150000X-0.587500X0.150000X-0.587500X-0.150000X0.587500X-0.150000X0*%
%ADD41RoundRect,0.200000X-0.200000X-0.800000X0.200000X-0.800000X0.200000X0.800000X-0.200000X0.800000X0*%
%ADD42R,3.500000X3.500000*%
%ADD43RoundRect,0.062500X0.375000X-0.062500X0.375000X0.062500X-0.375000X0.062500X-0.375000X-0.062500X0*%
%ADD44RoundRect,0.062500X0.062500X-0.375000X0.062500X0.375000X-0.062500X0.375000X-0.062500X-0.375000X0*%
G04 APERTURE END LIST*
%TO.C,J3*%
G36*
X120051000Y-132830000D02*
G01*
X120085000Y-132833000D01*
X120119000Y-132837000D01*
X120152000Y-132843000D01*
X120185000Y-132851000D01*
X120218000Y-132861000D01*
X120250000Y-132872000D01*
X120281000Y-132885000D01*
X120312000Y-132900000D01*
X120342000Y-132916000D01*
X120371000Y-132934000D01*
X120399000Y-132953000D01*
X120426000Y-132974000D01*
X120452000Y-132996000D01*
X120477000Y-133019000D01*
X120500000Y-133044000D01*
X120522000Y-133070000D01*
X120543000Y-133097000D01*
X120562000Y-133125000D01*
X120580000Y-133154000D01*
X120596000Y-133184000D01*
X120611000Y-133215000D01*
X120624000Y-133246000D01*
X120635000Y-133278000D01*
X120645000Y-133311000D01*
X120653000Y-133344000D01*
X120659000Y-133377000D01*
X120663000Y-133411000D01*
X120666000Y-133445000D01*
X120667000Y-133479000D01*
X120667000Y-134079000D01*
X120666000Y-134113000D01*
X120663000Y-134147000D01*
X120659000Y-134181000D01*
X120653000Y-134214000D01*
X120645000Y-134247000D01*
X120635000Y-134280000D01*
X120624000Y-134312000D01*
X120611000Y-134343000D01*
X120596000Y-134374000D01*
X120580000Y-134404000D01*
X120562000Y-134433000D01*
X120543000Y-134461000D01*
X120522000Y-134488000D01*
X120500000Y-134514000D01*
X120477000Y-134539000D01*
X120452000Y-134562000D01*
X120426000Y-134584000D01*
X120399000Y-134605000D01*
X120371000Y-134624000D01*
X120342000Y-134642000D01*
X120312000Y-134658000D01*
X120281000Y-134673000D01*
X120250000Y-134686000D01*
X120218000Y-134697000D01*
X120185000Y-134707000D01*
X120152000Y-134715000D01*
X120119000Y-134721000D01*
X120085000Y-134725000D01*
X120051000Y-134728000D01*
X120017000Y-134729000D01*
X119983000Y-134728000D01*
X119949000Y-134725000D01*
X119915000Y-134721000D01*
X119882000Y-134715000D01*
X119849000Y-134707000D01*
X119816000Y-134697000D01*
X119784000Y-134686000D01*
X119753000Y-134673000D01*
X119722000Y-134658000D01*
X119692000Y-134642000D01*
X119663000Y-134624000D01*
X119635000Y-134605000D01*
X119608000Y-134584000D01*
X119582000Y-134562000D01*
X119557000Y-134539000D01*
X119534000Y-134514000D01*
X119512000Y-134488000D01*
X119491000Y-134461000D01*
X119472000Y-134433000D01*
X119454000Y-134404000D01*
X119438000Y-134374000D01*
X119423000Y-134343000D01*
X119410000Y-134312000D01*
X119399000Y-134280000D01*
X119389000Y-134247000D01*
X119381000Y-134214000D01*
X119375000Y-134181000D01*
X119371000Y-134147000D01*
X119368000Y-134113000D01*
X119367000Y-134079000D01*
X119367000Y-133479000D01*
X119368000Y-133445000D01*
X119371000Y-133411000D01*
X119375000Y-133377000D01*
X119381000Y-133344000D01*
X119389000Y-133311000D01*
X119399000Y-133278000D01*
X119410000Y-133246000D01*
X119423000Y-133215000D01*
X119438000Y-133184000D01*
X119454000Y-133154000D01*
X119472000Y-133125000D01*
X119491000Y-133097000D01*
X119512000Y-133070000D01*
X119534000Y-133044000D01*
X119557000Y-133019000D01*
X119582000Y-132996000D01*
X119608000Y-132974000D01*
X119635000Y-132953000D01*
X119663000Y-132934000D01*
X119692000Y-132916000D01*
X119722000Y-132900000D01*
X119753000Y-132885000D01*
X119784000Y-132872000D01*
X119816000Y-132861000D01*
X119849000Y-132851000D01*
X119882000Y-132843000D01*
X119915000Y-132837000D01*
X119949000Y-132833000D01*
X119983000Y-132830000D01*
X120017000Y-132829000D01*
X120051000Y-132830000D01*
G37*
D10*
X120051000Y-132830000D02*
X120085000Y-132833000D01*
X120119000Y-132837000D01*
X120152000Y-132843000D01*
X120185000Y-132851000D01*
X120218000Y-132861000D01*
X120250000Y-132872000D01*
X120281000Y-132885000D01*
X120312000Y-132900000D01*
X120342000Y-132916000D01*
X120371000Y-132934000D01*
X120399000Y-132953000D01*
X120426000Y-132974000D01*
X120452000Y-132996000D01*
X120477000Y-133019000D01*
X120500000Y-133044000D01*
X120522000Y-133070000D01*
X120543000Y-133097000D01*
X120562000Y-133125000D01*
X120580000Y-133154000D01*
X120596000Y-133184000D01*
X120611000Y-133215000D01*
X120624000Y-133246000D01*
X120635000Y-133278000D01*
X120645000Y-133311000D01*
X120653000Y-133344000D01*
X120659000Y-133377000D01*
X120663000Y-133411000D01*
X120666000Y-133445000D01*
X120667000Y-133479000D01*
X120667000Y-134079000D01*
X120666000Y-134113000D01*
X120663000Y-134147000D01*
X120659000Y-134181000D01*
X120653000Y-134214000D01*
X120645000Y-134247000D01*
X120635000Y-134280000D01*
X120624000Y-134312000D01*
X120611000Y-134343000D01*
X120596000Y-134374000D01*
X120580000Y-134404000D01*
X120562000Y-134433000D01*
X120543000Y-134461000D01*
X120522000Y-134488000D01*
X120500000Y-134514000D01*
X120477000Y-134539000D01*
X120452000Y-134562000D01*
X120426000Y-134584000D01*
X120399000Y-134605000D01*
X120371000Y-134624000D01*
X120342000Y-134642000D01*
X120312000Y-134658000D01*
X120281000Y-134673000D01*
X120250000Y-134686000D01*
X120218000Y-134697000D01*
X120185000Y-134707000D01*
X120152000Y-134715000D01*
X120119000Y-134721000D01*
X120085000Y-134725000D01*
X120051000Y-134728000D01*
X120017000Y-134729000D01*
X119983000Y-134728000D01*
X119949000Y-134725000D01*
X119915000Y-134721000D01*
X119882000Y-134715000D01*
X119849000Y-134707000D01*
X119816000Y-134697000D01*
X119784000Y-134686000D01*
X119753000Y-134673000D01*
X119722000Y-134658000D01*
X119692000Y-134642000D01*
X119663000Y-134624000D01*
X119635000Y-134605000D01*
X119608000Y-134584000D01*
X119582000Y-134562000D01*
X119557000Y-134539000D01*
X119534000Y-134514000D01*
X119512000Y-134488000D01*
X119491000Y-134461000D01*
X119472000Y-134433000D01*
X119454000Y-134404000D01*
X119438000Y-134374000D01*
X119423000Y-134343000D01*
X119410000Y-134312000D01*
X119399000Y-134280000D01*
X119389000Y-134247000D01*
X119381000Y-134214000D01*
X119375000Y-134181000D01*
X119371000Y-134147000D01*
X119368000Y-134113000D01*
X119367000Y-134079000D01*
X119367000Y-133479000D01*
X119368000Y-133445000D01*
X119371000Y-133411000D01*
X119375000Y-133377000D01*
X119381000Y-133344000D01*
X119389000Y-133311000D01*
X119399000Y-133278000D01*
X119410000Y-133246000D01*
X119423000Y-133215000D01*
X119438000Y-133184000D01*
X119454000Y-133154000D01*
X119472000Y-133125000D01*
X119491000Y-133097000D01*
X119512000Y-133070000D01*
X119534000Y-133044000D01*
X119557000Y-133019000D01*
X119582000Y-132996000D01*
X119608000Y-132974000D01*
X119635000Y-132953000D01*
X119663000Y-132934000D01*
X119692000Y-132916000D01*
X119722000Y-132900000D01*
X119753000Y-132885000D01*
X119784000Y-132872000D01*
X119816000Y-132861000D01*
X119849000Y-132851000D01*
X119882000Y-132843000D01*
X119915000Y-132837000D01*
X119949000Y-132833000D01*
X119983000Y-132830000D01*
X120017000Y-132829000D01*
X120051000Y-132830000D01*
G36*
X111411000Y-132830000D02*
G01*
X111445000Y-132833000D01*
X111479000Y-132837000D01*
X111512000Y-132843000D01*
X111545000Y-132851000D01*
X111578000Y-132861000D01*
X111610000Y-132872000D01*
X111641000Y-132885000D01*
X111672000Y-132900000D01*
X111702000Y-132916000D01*
X111731000Y-132934000D01*
X111759000Y-132953000D01*
X111786000Y-132974000D01*
X111812000Y-132996000D01*
X111837000Y-133019000D01*
X111860000Y-133044000D01*
X111882000Y-133070000D01*
X111903000Y-133097000D01*
X111922000Y-133125000D01*
X111940000Y-133154000D01*
X111956000Y-133184000D01*
X111971000Y-133215000D01*
X111984000Y-133246000D01*
X111995000Y-133278000D01*
X112005000Y-133311000D01*
X112013000Y-133344000D01*
X112019000Y-133377000D01*
X112023000Y-133411000D01*
X112026000Y-133445000D01*
X112027000Y-133479000D01*
X112027000Y-134079000D01*
X112026000Y-134113000D01*
X112023000Y-134147000D01*
X112019000Y-134181000D01*
X112013000Y-134214000D01*
X112005000Y-134247000D01*
X111995000Y-134280000D01*
X111984000Y-134312000D01*
X111971000Y-134343000D01*
X111956000Y-134374000D01*
X111940000Y-134404000D01*
X111922000Y-134433000D01*
X111903000Y-134461000D01*
X111882000Y-134488000D01*
X111860000Y-134514000D01*
X111837000Y-134539000D01*
X111812000Y-134562000D01*
X111786000Y-134584000D01*
X111759000Y-134605000D01*
X111731000Y-134624000D01*
X111702000Y-134642000D01*
X111672000Y-134658000D01*
X111641000Y-134673000D01*
X111610000Y-134686000D01*
X111578000Y-134697000D01*
X111545000Y-134707000D01*
X111512000Y-134715000D01*
X111479000Y-134721000D01*
X111445000Y-134725000D01*
X111411000Y-134728000D01*
X111377000Y-134729000D01*
X111343000Y-134728000D01*
X111309000Y-134725000D01*
X111275000Y-134721000D01*
X111242000Y-134715000D01*
X111209000Y-134707000D01*
X111176000Y-134697000D01*
X111144000Y-134686000D01*
X111113000Y-134673000D01*
X111082000Y-134658000D01*
X111052000Y-134642000D01*
X111023000Y-134624000D01*
X110995000Y-134605000D01*
X110968000Y-134584000D01*
X110942000Y-134562000D01*
X110917000Y-134539000D01*
X110894000Y-134514000D01*
X110872000Y-134488000D01*
X110851000Y-134461000D01*
X110832000Y-134433000D01*
X110814000Y-134404000D01*
X110798000Y-134374000D01*
X110783000Y-134343000D01*
X110770000Y-134312000D01*
X110759000Y-134280000D01*
X110749000Y-134247000D01*
X110741000Y-134214000D01*
X110735000Y-134181000D01*
X110731000Y-134147000D01*
X110728000Y-134113000D01*
X110727000Y-134079000D01*
X110727000Y-133479000D01*
X110728000Y-133445000D01*
X110731000Y-133411000D01*
X110735000Y-133377000D01*
X110741000Y-133344000D01*
X110749000Y-133311000D01*
X110759000Y-133278000D01*
X110770000Y-133246000D01*
X110783000Y-133215000D01*
X110798000Y-133184000D01*
X110814000Y-133154000D01*
X110832000Y-133125000D01*
X110851000Y-133097000D01*
X110872000Y-133070000D01*
X110894000Y-133044000D01*
X110917000Y-133019000D01*
X110942000Y-132996000D01*
X110968000Y-132974000D01*
X110995000Y-132953000D01*
X111023000Y-132934000D01*
X111052000Y-132916000D01*
X111082000Y-132900000D01*
X111113000Y-132885000D01*
X111144000Y-132872000D01*
X111176000Y-132861000D01*
X111209000Y-132851000D01*
X111242000Y-132843000D01*
X111275000Y-132837000D01*
X111309000Y-132833000D01*
X111343000Y-132830000D01*
X111377000Y-132829000D01*
X111411000Y-132830000D01*
G37*
X111411000Y-132830000D02*
X111445000Y-132833000D01*
X111479000Y-132837000D01*
X111512000Y-132843000D01*
X111545000Y-132851000D01*
X111578000Y-132861000D01*
X111610000Y-132872000D01*
X111641000Y-132885000D01*
X111672000Y-132900000D01*
X111702000Y-132916000D01*
X111731000Y-132934000D01*
X111759000Y-132953000D01*
X111786000Y-132974000D01*
X111812000Y-132996000D01*
X111837000Y-133019000D01*
X111860000Y-133044000D01*
X111882000Y-133070000D01*
X111903000Y-133097000D01*
X111922000Y-133125000D01*
X111940000Y-133154000D01*
X111956000Y-133184000D01*
X111971000Y-133215000D01*
X111984000Y-133246000D01*
X111995000Y-133278000D01*
X112005000Y-133311000D01*
X112013000Y-133344000D01*
X112019000Y-133377000D01*
X112023000Y-133411000D01*
X112026000Y-133445000D01*
X112027000Y-133479000D01*
X112027000Y-134079000D01*
X112026000Y-134113000D01*
X112023000Y-134147000D01*
X112019000Y-134181000D01*
X112013000Y-134214000D01*
X112005000Y-134247000D01*
X111995000Y-134280000D01*
X111984000Y-134312000D01*
X111971000Y-134343000D01*
X111956000Y-134374000D01*
X111940000Y-134404000D01*
X111922000Y-134433000D01*
X111903000Y-134461000D01*
X111882000Y-134488000D01*
X111860000Y-134514000D01*
X111837000Y-134539000D01*
X111812000Y-134562000D01*
X111786000Y-134584000D01*
X111759000Y-134605000D01*
X111731000Y-134624000D01*
X111702000Y-134642000D01*
X111672000Y-134658000D01*
X111641000Y-134673000D01*
X111610000Y-134686000D01*
X111578000Y-134697000D01*
X111545000Y-134707000D01*
X111512000Y-134715000D01*
X111479000Y-134721000D01*
X111445000Y-134725000D01*
X111411000Y-134728000D01*
X111377000Y-134729000D01*
X111343000Y-134728000D01*
X111309000Y-134725000D01*
X111275000Y-134721000D01*
X111242000Y-134715000D01*
X111209000Y-134707000D01*
X111176000Y-134697000D01*
X111144000Y-134686000D01*
X111113000Y-134673000D01*
X111082000Y-134658000D01*
X111052000Y-134642000D01*
X111023000Y-134624000D01*
X110995000Y-134605000D01*
X110968000Y-134584000D01*
X110942000Y-134562000D01*
X110917000Y-134539000D01*
X110894000Y-134514000D01*
X110872000Y-134488000D01*
X110851000Y-134461000D01*
X110832000Y-134433000D01*
X110814000Y-134404000D01*
X110798000Y-134374000D01*
X110783000Y-134343000D01*
X110770000Y-134312000D01*
X110759000Y-134280000D01*
X110749000Y-134247000D01*
X110741000Y-134214000D01*
X110735000Y-134181000D01*
X110731000Y-134147000D01*
X110728000Y-134113000D01*
X110727000Y-134079000D01*
X110727000Y-133479000D01*
X110728000Y-133445000D01*
X110731000Y-133411000D01*
X110735000Y-133377000D01*
X110741000Y-133344000D01*
X110749000Y-133311000D01*
X110759000Y-133278000D01*
X110770000Y-133246000D01*
X110783000Y-133215000D01*
X110798000Y-133184000D01*
X110814000Y-133154000D01*
X110832000Y-133125000D01*
X110851000Y-133097000D01*
X110872000Y-133070000D01*
X110894000Y-133044000D01*
X110917000Y-133019000D01*
X110942000Y-132996000D01*
X110968000Y-132974000D01*
X110995000Y-132953000D01*
X111023000Y-132934000D01*
X111052000Y-132916000D01*
X111082000Y-132900000D01*
X111113000Y-132885000D01*
X111144000Y-132872000D01*
X111176000Y-132861000D01*
X111209000Y-132851000D01*
X111242000Y-132843000D01*
X111275000Y-132837000D01*
X111309000Y-132833000D01*
X111343000Y-132830000D01*
X111377000Y-132829000D01*
X111411000Y-132830000D01*
G36*
X120051000Y-136630000D02*
G01*
X120085000Y-136633000D01*
X120119000Y-136637000D01*
X120152000Y-136643000D01*
X120185000Y-136651000D01*
X120218000Y-136661000D01*
X120250000Y-136672000D01*
X120281000Y-136685000D01*
X120312000Y-136700000D01*
X120342000Y-136716000D01*
X120371000Y-136734000D01*
X120399000Y-136753000D01*
X120426000Y-136774000D01*
X120452000Y-136796000D01*
X120477000Y-136819000D01*
X120500000Y-136844000D01*
X120522000Y-136870000D01*
X120543000Y-136897000D01*
X120562000Y-136925000D01*
X120580000Y-136954000D01*
X120596000Y-136984000D01*
X120611000Y-137015000D01*
X120624000Y-137046000D01*
X120635000Y-137078000D01*
X120645000Y-137111000D01*
X120653000Y-137144000D01*
X120659000Y-137177000D01*
X120663000Y-137211000D01*
X120666000Y-137245000D01*
X120667000Y-137279000D01*
X120667000Y-137879000D01*
X120666000Y-137913000D01*
X120663000Y-137947000D01*
X120659000Y-137981000D01*
X120653000Y-138014000D01*
X120645000Y-138047000D01*
X120635000Y-138080000D01*
X120624000Y-138112000D01*
X120611000Y-138143000D01*
X120596000Y-138174000D01*
X120580000Y-138204000D01*
X120562000Y-138233000D01*
X120543000Y-138261000D01*
X120522000Y-138288000D01*
X120500000Y-138314000D01*
X120477000Y-138339000D01*
X120452000Y-138362000D01*
X120426000Y-138384000D01*
X120399000Y-138405000D01*
X120371000Y-138424000D01*
X120342000Y-138442000D01*
X120312000Y-138458000D01*
X120281000Y-138473000D01*
X120250000Y-138486000D01*
X120218000Y-138497000D01*
X120185000Y-138507000D01*
X120152000Y-138515000D01*
X120119000Y-138521000D01*
X120085000Y-138525000D01*
X120051000Y-138528000D01*
X120017000Y-138529000D01*
X119983000Y-138528000D01*
X119949000Y-138525000D01*
X119915000Y-138521000D01*
X119882000Y-138515000D01*
X119849000Y-138507000D01*
X119816000Y-138497000D01*
X119784000Y-138486000D01*
X119753000Y-138473000D01*
X119722000Y-138458000D01*
X119692000Y-138442000D01*
X119663000Y-138424000D01*
X119635000Y-138405000D01*
X119608000Y-138384000D01*
X119582000Y-138362000D01*
X119557000Y-138339000D01*
X119534000Y-138314000D01*
X119512000Y-138288000D01*
X119491000Y-138261000D01*
X119472000Y-138233000D01*
X119454000Y-138204000D01*
X119438000Y-138174000D01*
X119423000Y-138143000D01*
X119410000Y-138112000D01*
X119399000Y-138080000D01*
X119389000Y-138047000D01*
X119381000Y-138014000D01*
X119375000Y-137981000D01*
X119371000Y-137947000D01*
X119368000Y-137913000D01*
X119367000Y-137879000D01*
X119367000Y-137279000D01*
X119368000Y-137245000D01*
X119371000Y-137211000D01*
X119375000Y-137177000D01*
X119381000Y-137144000D01*
X119389000Y-137111000D01*
X119399000Y-137078000D01*
X119410000Y-137046000D01*
X119423000Y-137015000D01*
X119438000Y-136984000D01*
X119454000Y-136954000D01*
X119472000Y-136925000D01*
X119491000Y-136897000D01*
X119512000Y-136870000D01*
X119534000Y-136844000D01*
X119557000Y-136819000D01*
X119582000Y-136796000D01*
X119608000Y-136774000D01*
X119635000Y-136753000D01*
X119663000Y-136734000D01*
X119692000Y-136716000D01*
X119722000Y-136700000D01*
X119753000Y-136685000D01*
X119784000Y-136672000D01*
X119816000Y-136661000D01*
X119849000Y-136651000D01*
X119882000Y-136643000D01*
X119915000Y-136637000D01*
X119949000Y-136633000D01*
X119983000Y-136630000D01*
X120017000Y-136629000D01*
X120051000Y-136630000D01*
G37*
X120051000Y-136630000D02*
X120085000Y-136633000D01*
X120119000Y-136637000D01*
X120152000Y-136643000D01*
X120185000Y-136651000D01*
X120218000Y-136661000D01*
X120250000Y-136672000D01*
X120281000Y-136685000D01*
X120312000Y-136700000D01*
X120342000Y-136716000D01*
X120371000Y-136734000D01*
X120399000Y-136753000D01*
X120426000Y-136774000D01*
X120452000Y-136796000D01*
X120477000Y-136819000D01*
X120500000Y-136844000D01*
X120522000Y-136870000D01*
X120543000Y-136897000D01*
X120562000Y-136925000D01*
X120580000Y-136954000D01*
X120596000Y-136984000D01*
X120611000Y-137015000D01*
X120624000Y-137046000D01*
X120635000Y-137078000D01*
X120645000Y-137111000D01*
X120653000Y-137144000D01*
X120659000Y-137177000D01*
X120663000Y-137211000D01*
X120666000Y-137245000D01*
X120667000Y-137279000D01*
X120667000Y-137879000D01*
X120666000Y-137913000D01*
X120663000Y-137947000D01*
X120659000Y-137981000D01*
X120653000Y-138014000D01*
X120645000Y-138047000D01*
X120635000Y-138080000D01*
X120624000Y-138112000D01*
X120611000Y-138143000D01*
X120596000Y-138174000D01*
X120580000Y-138204000D01*
X120562000Y-138233000D01*
X120543000Y-138261000D01*
X120522000Y-138288000D01*
X120500000Y-138314000D01*
X120477000Y-138339000D01*
X120452000Y-138362000D01*
X120426000Y-138384000D01*
X120399000Y-138405000D01*
X120371000Y-138424000D01*
X120342000Y-138442000D01*
X120312000Y-138458000D01*
X120281000Y-138473000D01*
X120250000Y-138486000D01*
X120218000Y-138497000D01*
X120185000Y-138507000D01*
X120152000Y-138515000D01*
X120119000Y-138521000D01*
X120085000Y-138525000D01*
X120051000Y-138528000D01*
X120017000Y-138529000D01*
X119983000Y-138528000D01*
X119949000Y-138525000D01*
X119915000Y-138521000D01*
X119882000Y-138515000D01*
X119849000Y-138507000D01*
X119816000Y-138497000D01*
X119784000Y-138486000D01*
X119753000Y-138473000D01*
X119722000Y-138458000D01*
X119692000Y-138442000D01*
X119663000Y-138424000D01*
X119635000Y-138405000D01*
X119608000Y-138384000D01*
X119582000Y-138362000D01*
X119557000Y-138339000D01*
X119534000Y-138314000D01*
X119512000Y-138288000D01*
X119491000Y-138261000D01*
X119472000Y-138233000D01*
X119454000Y-138204000D01*
X119438000Y-138174000D01*
X119423000Y-138143000D01*
X119410000Y-138112000D01*
X119399000Y-138080000D01*
X119389000Y-138047000D01*
X119381000Y-138014000D01*
X119375000Y-137981000D01*
X119371000Y-137947000D01*
X119368000Y-137913000D01*
X119367000Y-137879000D01*
X119367000Y-137279000D01*
X119368000Y-137245000D01*
X119371000Y-137211000D01*
X119375000Y-137177000D01*
X119381000Y-137144000D01*
X119389000Y-137111000D01*
X119399000Y-137078000D01*
X119410000Y-137046000D01*
X119423000Y-137015000D01*
X119438000Y-136984000D01*
X119454000Y-136954000D01*
X119472000Y-136925000D01*
X119491000Y-136897000D01*
X119512000Y-136870000D01*
X119534000Y-136844000D01*
X119557000Y-136819000D01*
X119582000Y-136796000D01*
X119608000Y-136774000D01*
X119635000Y-136753000D01*
X119663000Y-136734000D01*
X119692000Y-136716000D01*
X119722000Y-136700000D01*
X119753000Y-136685000D01*
X119784000Y-136672000D01*
X119816000Y-136661000D01*
X119849000Y-136651000D01*
X119882000Y-136643000D01*
X119915000Y-136637000D01*
X119949000Y-136633000D01*
X119983000Y-136630000D01*
X120017000Y-136629000D01*
X120051000Y-136630000D01*
G36*
X111411000Y-136630000D02*
G01*
X111445000Y-136633000D01*
X111479000Y-136637000D01*
X111512000Y-136643000D01*
X111545000Y-136651000D01*
X111578000Y-136661000D01*
X111610000Y-136672000D01*
X111641000Y-136685000D01*
X111672000Y-136700000D01*
X111702000Y-136716000D01*
X111731000Y-136734000D01*
X111759000Y-136753000D01*
X111786000Y-136774000D01*
X111812000Y-136796000D01*
X111837000Y-136819000D01*
X111860000Y-136844000D01*
X111882000Y-136870000D01*
X111903000Y-136897000D01*
X111922000Y-136925000D01*
X111940000Y-136954000D01*
X111956000Y-136984000D01*
X111971000Y-137015000D01*
X111984000Y-137046000D01*
X111995000Y-137078000D01*
X112005000Y-137111000D01*
X112013000Y-137144000D01*
X112019000Y-137177000D01*
X112023000Y-137211000D01*
X112026000Y-137245000D01*
X112027000Y-137279000D01*
X112027000Y-137879000D01*
X112026000Y-137913000D01*
X112023000Y-137947000D01*
X112019000Y-137981000D01*
X112013000Y-138014000D01*
X112005000Y-138047000D01*
X111995000Y-138080000D01*
X111984000Y-138112000D01*
X111971000Y-138143000D01*
X111956000Y-138174000D01*
X111940000Y-138204000D01*
X111922000Y-138233000D01*
X111903000Y-138261000D01*
X111882000Y-138288000D01*
X111860000Y-138314000D01*
X111837000Y-138339000D01*
X111812000Y-138362000D01*
X111786000Y-138384000D01*
X111759000Y-138405000D01*
X111731000Y-138424000D01*
X111702000Y-138442000D01*
X111672000Y-138458000D01*
X111641000Y-138473000D01*
X111610000Y-138486000D01*
X111578000Y-138497000D01*
X111545000Y-138507000D01*
X111512000Y-138515000D01*
X111479000Y-138521000D01*
X111445000Y-138525000D01*
X111411000Y-138528000D01*
X111377000Y-138529000D01*
X111343000Y-138528000D01*
X111309000Y-138525000D01*
X111275000Y-138521000D01*
X111242000Y-138515000D01*
X111209000Y-138507000D01*
X111176000Y-138497000D01*
X111144000Y-138486000D01*
X111113000Y-138473000D01*
X111082000Y-138458000D01*
X111052000Y-138442000D01*
X111023000Y-138424000D01*
X110995000Y-138405000D01*
X110968000Y-138384000D01*
X110942000Y-138362000D01*
X110917000Y-138339000D01*
X110894000Y-138314000D01*
X110872000Y-138288000D01*
X110851000Y-138261000D01*
X110832000Y-138233000D01*
X110814000Y-138204000D01*
X110798000Y-138174000D01*
X110783000Y-138143000D01*
X110770000Y-138112000D01*
X110759000Y-138080000D01*
X110749000Y-138047000D01*
X110741000Y-138014000D01*
X110735000Y-137981000D01*
X110731000Y-137947000D01*
X110728000Y-137913000D01*
X110727000Y-137879000D01*
X110727000Y-137279000D01*
X110728000Y-137245000D01*
X110731000Y-137211000D01*
X110735000Y-137177000D01*
X110741000Y-137144000D01*
X110749000Y-137111000D01*
X110759000Y-137078000D01*
X110770000Y-137046000D01*
X110783000Y-137015000D01*
X110798000Y-136984000D01*
X110814000Y-136954000D01*
X110832000Y-136925000D01*
X110851000Y-136897000D01*
X110872000Y-136870000D01*
X110894000Y-136844000D01*
X110917000Y-136819000D01*
X110942000Y-136796000D01*
X110968000Y-136774000D01*
X110995000Y-136753000D01*
X111023000Y-136734000D01*
X111052000Y-136716000D01*
X111082000Y-136700000D01*
X111113000Y-136685000D01*
X111144000Y-136672000D01*
X111176000Y-136661000D01*
X111209000Y-136651000D01*
X111242000Y-136643000D01*
X111275000Y-136637000D01*
X111309000Y-136633000D01*
X111343000Y-136630000D01*
X111377000Y-136629000D01*
X111411000Y-136630000D01*
G37*
X111411000Y-136630000D02*
X111445000Y-136633000D01*
X111479000Y-136637000D01*
X111512000Y-136643000D01*
X111545000Y-136651000D01*
X111578000Y-136661000D01*
X111610000Y-136672000D01*
X111641000Y-136685000D01*
X111672000Y-136700000D01*
X111702000Y-136716000D01*
X111731000Y-136734000D01*
X111759000Y-136753000D01*
X111786000Y-136774000D01*
X111812000Y-136796000D01*
X111837000Y-136819000D01*
X111860000Y-136844000D01*
X111882000Y-136870000D01*
X111903000Y-136897000D01*
X111922000Y-136925000D01*
X111940000Y-136954000D01*
X111956000Y-136984000D01*
X111971000Y-137015000D01*
X111984000Y-137046000D01*
X111995000Y-137078000D01*
X112005000Y-137111000D01*
X112013000Y-137144000D01*
X112019000Y-137177000D01*
X112023000Y-137211000D01*
X112026000Y-137245000D01*
X112027000Y-137279000D01*
X112027000Y-137879000D01*
X112026000Y-137913000D01*
X112023000Y-137947000D01*
X112019000Y-137981000D01*
X112013000Y-138014000D01*
X112005000Y-138047000D01*
X111995000Y-138080000D01*
X111984000Y-138112000D01*
X111971000Y-138143000D01*
X111956000Y-138174000D01*
X111940000Y-138204000D01*
X111922000Y-138233000D01*
X111903000Y-138261000D01*
X111882000Y-138288000D01*
X111860000Y-138314000D01*
X111837000Y-138339000D01*
X111812000Y-138362000D01*
X111786000Y-138384000D01*
X111759000Y-138405000D01*
X111731000Y-138424000D01*
X111702000Y-138442000D01*
X111672000Y-138458000D01*
X111641000Y-138473000D01*
X111610000Y-138486000D01*
X111578000Y-138497000D01*
X111545000Y-138507000D01*
X111512000Y-138515000D01*
X111479000Y-138521000D01*
X111445000Y-138525000D01*
X111411000Y-138528000D01*
X111377000Y-138529000D01*
X111343000Y-138528000D01*
X111309000Y-138525000D01*
X111275000Y-138521000D01*
X111242000Y-138515000D01*
X111209000Y-138507000D01*
X111176000Y-138497000D01*
X111144000Y-138486000D01*
X111113000Y-138473000D01*
X111082000Y-138458000D01*
X111052000Y-138442000D01*
X111023000Y-138424000D01*
X110995000Y-138405000D01*
X110968000Y-138384000D01*
X110942000Y-138362000D01*
X110917000Y-138339000D01*
X110894000Y-138314000D01*
X110872000Y-138288000D01*
X110851000Y-138261000D01*
X110832000Y-138233000D01*
X110814000Y-138204000D01*
X110798000Y-138174000D01*
X110783000Y-138143000D01*
X110770000Y-138112000D01*
X110759000Y-138080000D01*
X110749000Y-138047000D01*
X110741000Y-138014000D01*
X110735000Y-137981000D01*
X110731000Y-137947000D01*
X110728000Y-137913000D01*
X110727000Y-137879000D01*
X110727000Y-137279000D01*
X110728000Y-137245000D01*
X110731000Y-137211000D01*
X110735000Y-137177000D01*
X110741000Y-137144000D01*
X110749000Y-137111000D01*
X110759000Y-137078000D01*
X110770000Y-137046000D01*
X110783000Y-137015000D01*
X110798000Y-136984000D01*
X110814000Y-136954000D01*
X110832000Y-136925000D01*
X110851000Y-136897000D01*
X110872000Y-136870000D01*
X110894000Y-136844000D01*
X110917000Y-136819000D01*
X110942000Y-136796000D01*
X110968000Y-136774000D01*
X110995000Y-136753000D01*
X111023000Y-136734000D01*
X111052000Y-136716000D01*
X111082000Y-136700000D01*
X111113000Y-136685000D01*
X111144000Y-136672000D01*
X111176000Y-136661000D01*
X111209000Y-136651000D01*
X111242000Y-136643000D01*
X111275000Y-136637000D01*
X111309000Y-136633000D01*
X111343000Y-136630000D01*
X111377000Y-136629000D01*
X111411000Y-136630000D01*
%TD*%
D11*
%TO.C,U2*%
X130700000Y-122367000D03*
X130700000Y-124267000D03*
X128380000Y-124267000D03*
X128380000Y-123317000D03*
X128380000Y-122367000D03*
%TD*%
D12*
%TO.C,U1*%
X111252000Y-118684000D03*
D13*
X110252000Y-117734000D03*
X110752000Y-117734000D03*
X111252000Y-117734000D03*
X111752000Y-117734000D03*
X112252000Y-117734000D03*
X112252000Y-119634000D03*
X111752000Y-119634000D03*
X111252000Y-119634000D03*
X110752000Y-119634000D03*
X110252000Y-119634000D03*
%TD*%
D14*
%TO.C,J3*%
X116197000Y-133699000D03*
X115197000Y-133699000D03*
D15*
X117217000Y-133699000D03*
X114177000Y-133699000D03*
D16*
X118447000Y-133699000D03*
X112947000Y-133699000D03*
%TD*%
D17*
%TO.C,ANT*%
X168057000Y-137517400D03*
X168057000Y-134567400D03*
D18*
X169582000Y-136042400D03*
%TD*%
D19*
%TO.C,C32*%
X143510000Y-127218400D03*
X143510000Y-129118400D03*
%TD*%
D20*
%TO.C,PA0*%
X151277300Y-137685940D03*
X144378700Y-137680860D03*
D21*
X149327300Y-134185940D03*
X147827300Y-134185940D03*
X146328700Y-134180862D03*
%TD*%
D22*
%TO.C,U4*%
X172338000Y-117714000D03*
X172338000Y-119714000D03*
X172338000Y-121714000D03*
X172338000Y-123714000D03*
X172338000Y-125714000D03*
X172338000Y-127714000D03*
X172338000Y-129714000D03*
X172338000Y-131714000D03*
X156338000Y-131714000D03*
X156338000Y-129714000D03*
X156338000Y-127714000D03*
X156338000Y-125714000D03*
X156338000Y-123714000D03*
X156338000Y-121714000D03*
X156338000Y-119714000D03*
X156338000Y-117714000D03*
%TD*%
D20*
%TO.C,PA15*%
X143031566Y-103309260D03*
X149930166Y-103314340D03*
D21*
X144981566Y-106809260D03*
X146481566Y-106809260D03*
X147980166Y-106814338D03*
%TD*%
D23*
%TO.C,J2*%
X172364400Y-136042400D03*
%TD*%
D24*
%TO.C,REF\u002A\u002A*%
X177419000Y-104394000D03*
%TD*%
D19*
%TO.C,C33*%
X152400000Y-127061000D03*
X152400000Y-125161000D03*
%TD*%
D25*
%TO.C,DEBUG1*%
X176276000Y-124759000D03*
X177546000Y-124759000D03*
X178816000Y-124759000D03*
X176276000Y-120859000D03*
X177546000Y-120859000D03*
X178816000Y-120859000D03*
%TD*%
D26*
%TO.C,C35*%
X134936000Y-118952000D03*
X134936000Y-120852000D03*
%TD*%
D20*
%TO.C,VIN*%
X106935000Y-137644800D03*
X101535000Y-137644800D03*
D27*
X104985000Y-134044800D03*
X103485000Y-134044800D03*
%TD*%
D28*
%TO.C,JP3*%
X148356400Y-112014000D03*
X146456400Y-112014000D03*
X144556400Y-112014000D03*
%TD*%
D29*
%TO.C,Y1*%
X138684000Y-119027000D03*
X138684000Y-120777000D03*
X137284000Y-120777000D03*
X137284000Y-119027000D03*
%TD*%
D20*
%TO.C,PB8*%
X142450800Y-137685940D03*
X135552200Y-137680860D03*
D21*
X140500800Y-134185940D03*
X139000800Y-134185940D03*
X137502200Y-134180862D03*
%TD*%
D28*
%TO.C,JP4*%
X139364800Y-112014000D03*
X137464800Y-112014000D03*
X135564800Y-112014000D03*
%TD*%
D30*
%TO.C,R12*%
X111101500Y-122301000D03*
X112926500Y-122301000D03*
%TD*%
D31*
%TO.C,C14*%
X102665000Y-115062000D03*
X105615000Y-115062000D03*
%TD*%
D32*
%TO.C,R14*%
X118491000Y-117705500D03*
X118491000Y-119530500D03*
%TD*%
D33*
%TO.C,C3*%
X112828600Y-114096800D03*
X109878600Y-114096800D03*
%TD*%
D34*
%TO.C,NTC1*%
X116736500Y-122301000D03*
X114911500Y-122301000D03*
%TD*%
D35*
%TO.C,D2*%
X118745000Y-130051000D03*
X118745000Y-127251000D03*
%TD*%
D24*
%TO.C,REF\u002A\u002A*%
X95758000Y-136017000D03*
%TD*%
D28*
%TO.C,C31*%
X147609600Y-125780800D03*
X145709600Y-125780800D03*
%TD*%
D19*
%TO.C,C34*%
X141032000Y-120852000D03*
X141032000Y-118952000D03*
%TD*%
D36*
%TO.C,CHRG*%
X115824000Y-120018000D03*
X115824000Y-117218000D03*
%TD*%
D37*
%TO.C,R35*%
X127762000Y-134389500D03*
X127762000Y-132564500D03*
%TD*%
D24*
%TO.C,REF\u002A\u002A*%
X95758000Y-104394000D03*
%TD*%
D31*
%TO.C,C2*%
X127811000Y-118491000D03*
X130761000Y-118491000D03*
%TD*%
D38*
%TO.C,JP5*%
X145928000Y-128930400D03*
X147828000Y-128930400D03*
X149728000Y-128930400D03*
%TD*%
D30*
%TO.C,R31*%
X156770700Y-112064800D03*
X158595700Y-112064800D03*
%TD*%
D32*
%TO.C,R2*%
X113284000Y-128881500D03*
X113284000Y-130706500D03*
%TD*%
D39*
%TO.C,C1*%
X124841000Y-124919000D03*
X124841000Y-121969000D03*
%TD*%
D32*
%TO.C,R11*%
X101346000Y-120015000D03*
X101346000Y-121840000D03*
%TD*%
D33*
%TO.C,C11*%
X105742000Y-125444000D03*
X102792000Y-125444000D03*
%TD*%
D34*
%TO.C,R32*%
X154938100Y-112064800D03*
X153113100Y-112064800D03*
%TD*%
%TO.C,R13*%
X116736500Y-124563000D03*
X114911500Y-124563000D03*
%TD*%
D40*
%TO.C,Q2*%
X130075700Y-113639600D03*
X131950700Y-112689600D03*
X131950700Y-114589600D03*
%TD*%
D20*
%TO.C,PA8*%
X162565100Y-103309260D03*
X169463700Y-103314340D03*
D21*
X164515100Y-106809260D03*
X166015100Y-106809260D03*
X167513700Y-106814338D03*
%TD*%
D33*
%TO.C,C41*%
X176989000Y-112217200D03*
X174039000Y-112217200D03*
%TD*%
D28*
%TO.C,JP1*%
X167914400Y-112115600D03*
X166014400Y-112115600D03*
X164114400Y-112115600D03*
%TD*%
D38*
%TO.C,JP2*%
X137101500Y-128930400D03*
X139001500Y-128930400D03*
X140901500Y-128930400D03*
%TD*%
D20*
%TO.C,BATT*%
X101535000Y-103337500D03*
X106935000Y-103337500D03*
D27*
X103485000Y-106937500D03*
X104985000Y-106937500D03*
%TD*%
D20*
%TO.C,PB3*%
X134150700Y-103309260D03*
X141049300Y-103314340D03*
D21*
X136100700Y-106809260D03*
X137600700Y-106809260D03*
X139099300Y-106814338D03*
%TD*%
D24*
%TO.C,REF\u002A\u002A*%
X177419000Y-136017000D03*
%TD*%
D41*
%TO.C,RST*%
X158005200Y-135483600D03*
X153805200Y-135483600D03*
%TD*%
D37*
%TO.C,R33*%
X123952000Y-134389500D03*
X123952000Y-132564500D03*
%TD*%
%TO.C,R34*%
X123952000Y-138218500D03*
X123952000Y-136393500D03*
%TD*%
D42*
%TO.C,U3*%
X147447000Y-120142000D03*
D43*
X145009500Y-121892000D03*
X145009500Y-121392000D03*
X145009500Y-120892000D03*
X145009500Y-120392000D03*
X145009500Y-119892000D03*
X145009500Y-119392000D03*
X145009500Y-118892000D03*
X145009500Y-118392000D03*
D44*
X145697000Y-117704500D03*
X146197000Y-117704500D03*
X146697000Y-117704500D03*
X147197000Y-117704500D03*
X147697000Y-117704500D03*
X148197000Y-117704500D03*
X148697000Y-117704500D03*
X149197000Y-117704500D03*
D43*
X149884500Y-118392000D03*
X149884500Y-118892000D03*
X149884500Y-119392000D03*
X149884500Y-119892000D03*
X149884500Y-120392000D03*
X149884500Y-120892000D03*
X149884500Y-121392000D03*
X149884500Y-121892000D03*
D44*
X149197000Y-122579500D03*
X148697000Y-122579500D03*
X148197000Y-122579500D03*
X147697000Y-122579500D03*
X147197000Y-122579500D03*
X146697000Y-122579500D03*
X146197000Y-122579500D03*
X145697000Y-122579500D03*
%TD*%
D28*
%TO.C,C13*%
X112964000Y-124587000D03*
X111064000Y-124587000D03*
%TD*%
D37*
%TO.C,R36*%
X127762000Y-138199500D03*
X127762000Y-136374500D03*
%TD*%
D32*
%TO.C,R1*%
X115443000Y-128881500D03*
X115443000Y-130706500D03*
%TD*%
D20*
%TO.C,I2C*%
X152047632Y-103302000D03*
X160447632Y-103302000D03*
D27*
X153997632Y-106902000D03*
X155497632Y-106902000D03*
X156997632Y-106902000D03*
X158497632Y-106902000D03*
%TD*%
D40*
%TO.C,Q1*%
X104980500Y-118618000D03*
X106855500Y-117668000D03*
X106855500Y-119568000D03*
%TD*%
M02*
